<svg width="247" height="48" viewBox="0 0 247 48" fill="none" xmlns="http://www.w3.org/2000/svg">
<path d="M190.563 21.1736C189.824 21.1736 189.159 21.0054 188.57 20.6688C187.981 20.3323 187.518 19.8707 187.181 19.2842C186.853 18.688 186.69 18.0149 186.69 17.2649C186.69 16.5149 186.853 15.8466 187.181 15.2601C187.518 14.6639 187.981 14.2024 188.57 13.8754C189.159 13.5389 189.824 13.3706 190.563 13.3706C191.302 13.3706 191.961 13.5389 192.541 13.8754C193.131 14.2024 193.589 14.6639 193.916 15.2601C194.253 15.8466 194.422 16.5149 194.422 17.2649C194.422 18.0149 194.253 18.688 193.916 19.2842C193.589 19.8707 193.131 20.3323 192.541 20.6688C191.961 21.0054 191.302 21.1736 190.563 21.1736ZM190.563 19.9621C191.04 19.9621 191.465 19.8515 191.84 19.6303C192.223 19.3996 192.523 19.0823 192.738 18.6784C192.953 18.2649 193.06 17.7938 193.06 17.2649C193.06 16.7361 192.953 16.2697 192.738 15.8658C192.523 15.4524 192.223 15.1351 191.84 14.9139C191.465 14.6927 191.04 14.5822 190.563 14.5822C190.086 14.5822 189.655 14.6927 189.272 14.9139C188.897 15.1351 188.598 15.4524 188.374 15.8658C188.158 16.2697 188.051 16.7361 188.051 17.2649C188.051 17.7938 188.158 18.2649 188.374 18.6784C188.598 19.0823 188.897 19.3996 189.272 19.6303C189.655 19.8515 190.086 19.9621 190.563 19.9621Z" fill="#4775FF"/>
<path d="M227.57 21.1736C226.831 21.1736 226.167 21.0054 225.577 20.6688C224.988 20.3323 224.525 19.8707 224.188 19.2842C223.861 18.688 223.697 18.0149 223.697 17.2649C223.697 16.5149 223.861 15.8466 224.188 15.2601C224.525 14.6639 224.988 14.2024 225.577 13.8754C226.167 13.5389 226.831 13.3706 227.57 13.3706C228.309 13.3706 228.969 13.5389 229.549 13.8754C230.138 14.2024 230.596 14.6639 230.924 15.2601C231.261 15.8466 231.429 16.5149 231.429 17.2649C231.429 18.0149 231.261 18.688 230.924 19.2842C230.596 19.8707 230.138 20.3323 229.549 20.6688C228.969 21.0054 228.309 21.1736 227.57 21.1736ZM227.57 19.9621C228.047 19.9621 228.473 19.8515 228.847 19.6303C229.23 19.3996 229.53 19.0823 229.745 18.6784C229.96 18.2649 230.068 17.7938 230.068 17.2649C230.068 16.7361 229.96 16.2697 229.745 15.8658C229.53 15.4524 229.23 15.1351 228.847 14.9139C228.473 14.6927 228.047 14.5822 227.57 14.5822C227.093 14.5822 226.662 14.6927 226.279 14.9139C225.905 15.1351 225.605 15.4524 225.381 15.8658C225.166 16.2697 225.058 16.7361 225.058 17.2649C225.058 17.7938 225.166 18.2649 225.381 18.6784C225.605 19.0823 225.905 19.3996 226.279 19.6303C226.662 19.8515 227.093 19.9621 227.57 19.9621Z" fill="#4775FF"/>
<path d="M185.051 13.4487C185.348 13.4487 185.589 13.6909 185.589 13.9897V17.6634C185.589 18.7854 185.3 19.6485 184.722 20.2526C184.144 20.8568 183.307 21.1589 182.211 21.1589C180.916 21.1589 180.019 20.7034 179.521 19.7923C179.262 20.2526 178.908 20.5979 178.46 20.828C178.021 21.0486 177.473 21.1589 176.816 21.1589C175.71 21.1589 174.868 20.8568 174.29 20.2526C173.722 19.6485 173.438 18.7854 173.438 17.6634V13.9897C173.438 13.6909 173.679 13.4487 173.975 13.4487H174.336C174.632 13.4487 174.873 13.6909 174.873 13.9897V17.534C174.873 18.3491 175.027 18.9532 175.336 19.3464C175.645 19.73 176.138 19.9218 176.816 19.9218C177.493 19.9218 177.991 19.7252 178.31 19.332C178.639 18.9389 178.803 18.3395 178.803 17.534V13.9897C178.803 13.6909 179.044 13.4487 179.341 13.4487H179.701C179.998 13.4487 180.238 13.6909 180.238 13.9897V17.534C180.238 18.3395 180.398 18.9389 180.716 19.332C181.045 19.7252 181.548 19.9218 182.226 19.9218C182.893 19.9218 183.382 19.73 183.691 19.3464C183.999 18.9532 184.154 18.3491 184.154 17.534V13.9897C184.154 13.6909 184.394 13.4487 184.691 13.4487H185.051Z" fill="#4775FF"/>
<path d="M204.463 17.5406L202.789 19.0347V20.6077C202.789 20.9119 202.544 21.1586 202.242 21.1586H201.876C201.574 21.1586 201.329 20.9119 201.329 20.6077V10.8409C201.329 10.5366 201.574 10.29 201.876 10.29H202.242C202.544 10.29 202.789 10.5366 202.789 10.8409V17.2623L206.979 13.5766C207.112 13.4597 207.283 13.3953 207.459 13.3953H208.029C208.359 13.3953 208.519 13.8025 208.279 14.0302L205.558 16.6032L208.793 20.5578C208.989 20.7974 208.82 21.1586 208.512 21.1586H207.744C207.583 21.1586 207.43 21.0869 207.326 20.9627L204.463 17.5406Z" fill="#4775FF"/>
<path d="M216.658 11.4379C215.822 11.4379 215.403 11.8884 215.403 12.7892V13.4576H217.306C217.505 13.4576 217.665 13.622 217.665 13.8248V14.2383C217.665 14.4411 217.505 14.6055 217.306 14.6055H215.433V20.6078C215.433 20.912 215.192 21.1586 214.894 21.1586H214.57C214.273 21.1586 214.032 20.912 214.032 20.6078V12.7747C214.032 12.0094 214.255 11.404 214.703 10.9584C215.15 10.5128 215.778 10.29 216.585 10.29C216.897 10.29 217.189 10.3288 217.461 10.4063C217.63 10.4543 217.784 10.5154 217.923 10.5896C218.069 10.6676 218.118 10.8502 218.055 11.0064L217.912 11.3644C217.824 11.586 217.554 11.66 217.338 11.5701C217.125 11.482 216.899 11.4379 216.658 11.4379Z" fill="#4775FF"/>
<path d="M220.553 14.7067C220.801 14.2581 221.167 13.9167 221.652 13.6826C222.005 13.5128 222.411 13.4046 222.873 13.358C223.174 13.3275 223.42 13.5798 223.42 13.8861V14.3609C223.42 14.537 223.268 14.6775 223.094 14.6775C222.321 14.6775 221.712 14.9067 221.266 15.3651C220.83 15.8137 220.612 16.4574 220.612 17.2962V20.6039C220.612 20.9102 220.367 21.1585 220.064 21.1585H219.734C219.432 21.1585 219.186 20.9102 219.186 20.6039V13.9592C219.186 13.6529 219.432 13.4047 219.734 13.4047H220.005C220.308 13.4047 220.553 13.6529 220.553 13.9592V14.7067Z" fill="#4775FF"/>
<path d="M197.081 14.7067C197.328 14.2581 197.695 13.9167 198.18 13.6826C198.532 13.5128 198.939 13.4046 199.401 13.358C199.702 13.3275 199.948 13.5798 199.948 13.8861V14.3609C199.948 14.537 199.795 14.6775 199.621 14.6775C198.849 14.6775 198.24 14.9067 197.794 15.3651C197.358 15.8137 197.14 16.4574 197.14 17.2962V20.6039C197.14 20.9102 196.895 21.1585 196.592 21.1585H196.262C195.959 21.1585 195.714 20.9102 195.714 20.6039V13.9592C195.714 13.6529 195.959 13.4047 196.262 13.4047H196.533C196.835 13.4047 197.081 13.6529 197.081 13.9592V14.7067Z" fill="#4775FF"/>
<path d="M242.727 13.3555C243.724 13.3555 244.512 13.6374 245.09 14.2014C245.678 14.7654 245.973 15.6016 245.973 16.71V20.6056C245.973 20.911 245.726 21.1585 245.421 21.1585H245.089C244.784 21.1585 244.537 20.911 244.537 20.6056V16.8705C244.537 16.1218 244.357 15.5578 243.998 15.1786C243.649 14.7994 243.146 14.6098 242.487 14.6098C241.759 14.6098 241.181 14.8334 240.752 15.2807C240.324 15.7183 240.109 16.3503 240.109 17.1768V20.6056C240.109 20.911 239.862 21.1585 239.557 21.1585H239.225C238.92 21.1585 238.673 20.911 238.673 20.6056V16.8705C238.673 16.1218 238.494 15.5578 238.135 15.1786C237.786 14.7994 237.282 14.6098 236.624 14.6098C235.896 14.6098 235.318 14.8334 234.889 15.2807C234.46 15.7183 234.246 16.3503 234.246 17.1768V20.6056C234.246 20.911 233.999 21.1585 233.694 21.1585H233.362C233.057 21.1585 232.81 20.911 232.81 20.6056V13.9813C232.81 13.6759 233.057 13.4284 233.362 13.4284H233.634C233.939 13.4284 234.186 13.6759 234.186 13.9813V14.5806C234.475 14.182 234.854 13.8805 235.323 13.6763C235.791 13.4624 236.325 13.3555 236.923 13.3555C237.541 13.3555 238.09 13.477 238.568 13.7201C239.047 13.9632 239.416 14.3181 239.675 14.7848C239.975 14.3375 240.388 13.9875 240.917 13.7347C241.455 13.4819 242.059 13.3555 242.727 13.3555Z" fill="#4775FF"/>
<path d="M176.683 44.0468C176.303 44.0468 175.947 43.861 175.729 43.5493L172.472 38.8802C172.321 38.897 172.094 38.9054 171.792 38.9054H167.81V42.884C167.81 43.5262 167.289 44.0468 166.647 44.0468H165.696C165.054 44.0468 164.533 43.5262 164.533 42.884V27.5676C164.533 26.9254 165.054 26.4048 165.696 26.4048H171.792C173.321 26.4048 174.648 26.6568 175.774 27.1609C176.916 27.6649 177.79 28.3874 178.395 29.3283C179 30.2692 179.302 31.3866 179.302 32.6803C179.302 34.0077 178.975 35.1502 178.319 36.1079C177.681 37.0656 176.757 37.7797 175.547 38.2502L178.324 42.2172C178.863 42.9879 178.312 44.0468 177.371 44.0468H176.683ZM176.001 32.6803C176.001 31.5546 175.631 30.6893 174.892 30.0844C174.152 29.4795 173.069 29.1771 171.64 29.1771H167.81V36.2087H171.64C173.069 36.2087 174.152 35.9063 174.892 35.3014C175.631 34.6797 176.001 33.806 176.001 32.6803Z" fill="#4775FF"/>
<path d="M176.683 44.0468C176.303 44.0468 175.947 43.861 175.729 43.5493L172.472 38.8802C172.321 38.897 172.094 38.9054 171.792 38.9054H167.81V42.884C167.81 43.5262 167.289 44.0468 166.647 44.0468H165.696C165.054 44.0468 164.533 43.5262 164.533 42.884V27.5676C164.533 26.9254 165.054 26.4048 165.696 26.4048H171.792C173.321 26.4048 174.648 26.6568 175.774 27.1609C176.916 27.6649 177.79 28.3874 178.395 29.3283C179 30.2692 179.302 31.3866 179.302 32.6803C179.302 34.0077 178.975 35.1502 178.319 36.1079C177.681 37.0656 176.757 37.7797 175.547 38.2502L178.324 42.2172C178.863 42.9879 178.312 44.0468 177.371 44.0468H176.683ZM176.001 32.6803C176.001 31.5546 175.631 30.6893 174.892 30.0844C174.152 29.4795 173.069 29.1771 171.64 29.1771H167.81V36.2087H171.64C173.069 36.2087 174.152 35.9063 174.892 35.3014C175.631 34.6797 176.001 33.806 176.001 32.6803Z" fill="#4775FF"/>
<path d="M240.204 26.4048C242.276 26.4048 243.893 27.0107 245.056 28.2226C246.218 29.4177 246.799 31.143 246.799 33.3985V43.166C246.799 43.8093 246.277 44.3308 245.634 44.3308H244.68C244.036 44.3308 243.514 43.8093 243.514 43.166V33.5247C243.514 32.1277 243.144 31.0757 242.402 30.3687C241.678 29.6449 240.726 29.2831 239.547 29.2831C238.233 29.2831 237.18 29.6534 236.388 30.394C235.613 31.1346 235.226 32.2707 235.226 33.8024V43.166C235.226 43.8093 234.704 44.3308 234.06 44.3308H233.107C232.463 44.3308 231.941 43.8093 231.941 43.166V33.5247C231.941 32.1108 231.595 31.0504 230.905 30.3435C230.231 29.6365 229.304 29.2831 228.125 29.2831C226.794 29.2831 225.725 29.6618 224.916 30.4192C224.124 31.1598 223.728 32.2876 223.728 33.8024V43.166C223.728 43.8093 223.206 44.3308 222.562 44.3308H221.609C220.965 44.3308 220.443 43.8093 220.443 43.166V27.8221C220.443 27.1788 220.965 26.6573 221.609 26.6573H222.461C223.105 26.6573 223.627 27.1788 223.627 27.8221V28.9801C224.166 28.1553 224.899 27.5241 225.826 27.0865C226.752 26.632 227.822 26.4048 229.035 26.4048C230.281 26.4048 231.368 26.6404 232.295 27.1117C233.221 27.583 233.92 28.2479 234.392 29.1063C234.982 28.2479 235.782 27.583 236.793 27.1117C237.82 26.6404 238.957 26.4048 240.204 26.4048Z" fill="#4775FF"/>
<path d="M189.937 44.5246C188.177 44.5246 186.596 44.1339 185.192 43.3524C183.789 42.5709 182.686 41.4991 181.885 40.137C181.105 38.7526 180.715 37.1896 180.715 35.448C180.715 33.7063 181.105 32.1545 181.885 30.7924C182.686 29.408 183.789 28.3362 185.192 27.5771C186.596 26.7955 188.177 26.4048 189.937 26.4048C191.697 26.4048 193.267 26.7955 194.648 27.5771C196.052 28.3362 197.143 29.408 197.923 30.7924C198.725 32.1545 199.126 33.7063 199.126 35.448C199.126 37.1896 198.725 38.7526 197.923 40.137C197.143 41.4991 196.052 42.5709 194.648 43.3524C193.267 44.1339 191.697 44.5246 189.937 44.5246ZM189.937 41.7112C191.073 41.7112 192.087 41.4544 192.978 40.9409C193.891 40.405 194.604 39.6681 195.116 38.7303C195.628 37.7702 195.885 36.6761 195.885 35.448C195.885 34.2199 195.628 33.1369 195.116 32.1991C194.604 31.239 193.891 30.5021 192.978 29.9886C192.087 29.475 191.073 29.2182 189.937 29.2182C188.801 29.2182 187.776 29.475 186.863 29.9886C185.972 30.5021 185.259 31.239 184.725 32.1991C184.212 33.1369 183.956 34.2199 183.956 35.448C183.956 36.6761 184.212 37.7702 184.725 38.7303C185.259 39.6681 185.972 40.405 186.863 40.9409C187.776 41.4544 188.801 41.7112 189.937 41.7112Z" fill="#4775FF"/>
<path d="M209.594 26.1211C211.176 26.1211 212.557 26.4325 213.735 27.0553C214.913 27.6781 215.822 28.6038 216.462 29.8325C217.118 31.0444 217.446 32.5172 217.446 34.2509V42.406C217.446 43.3124 216.711 44.0472 215.805 44.0472C214.899 44.0472 214.164 43.3124 214.164 42.406V39.5025H204.974V42.4313C204.974 43.3237 204.25 44.0472 203.358 44.0472C202.465 44.0472 201.742 43.3237 201.742 42.4313V34.2509C201.742 32.5172 202.062 31.0444 202.701 29.8325C203.358 28.6038 204.275 27.6781 205.453 27.0553C206.632 26.4325 208.012 26.1211 209.594 26.1211ZM214.164 36.7505V33.948C214.164 32.3153 213.76 31.0865 212.952 30.2618C212.144 29.4202 211.016 28.9994 209.569 28.9994C208.121 28.9994 206.994 29.4202 206.186 30.2618C205.378 31.0865 204.974 32.3153 204.974 33.948V36.7505H214.164Z" fill="#4775FF"/>
<path fill-rule="evenodd" clip-rule="evenodd" d="M138.322 14.3445L138.322 14.3445C137.805 14.3777 137.368 14.4057 137.046 14.4057C134.997 14.4057 133.533 13.1249 133.533 11.3317C133.533 10.1134 131.586 9.64092 131.029 10.7245C130.341 12.0625 129.68 13.5395 129.142 15.4304C128.221 18.6686 132.033 21.1392 133.533 21.1392H136.414C136.396 21.3441 136.387 21.5588 136.387 21.7836C136.387 25.832 138.269 32.0747 141.149 36.4138C140.372 40.2205 141.806 43.0636 142.509 43.1683C142.879 43.2236 143.169 42.6709 143.402 42.2277C143.612 41.8264 143.775 41.5149 143.909 41.826C143.947 41.9137 144.003 42.0599 144.076 42.2504C144.653 43.7514 146.285 48.0001 148.244 48.0001C150.086 48.0001 151.44 44.4319 152.12 42.6411C152.255 42.2852 152.364 41.9996 152.444 41.826C152.601 41.4878 152.756 41.789 152.964 42.1922C153.171 42.5916 153.429 43.091 153.79 43.1683C154.544 43.3294 156.133 40.8327 155.352 36.3493C155.341 36.2873 155.328 36.2268 155.311 36.1679C158.023 32.1187 159.808 26.4161 159.808 21.7836C159.808 21.5588 159.799 21.3441 159.78 21.1392H162.956C164.456 21.1392 168.268 18.6686 167.347 15.4304C166.809 13.5395 166.148 12.0625 165.46 10.7245C164.903 9.64092 162.956 10.1134 162.956 11.3317C162.956 13.1249 161.492 14.4057 159.443 14.4057C159.12 14.4057 158.684 14.3777 158.166 14.3445C155.393 14.1666 150.311 13.8407 148.244 16.8942C146.178 13.8407 141.096 14.1666 138.322 14.3445Z" fill="#4775FF"/>
<ellipse cx="148.244" cy="37.4606" rx="5.92841" ry="3.87908" fill="#FFCC47"/>
<circle cx="144.877" cy="38.1928" r="0.731902" fill="#4775FF"/>
<circle cx="151.611" cy="38.1928" r="0.731902" fill="#4775FF"/>
<path d="M148.228 8.14809C146.34 8.1546 144.529 8.90401 143.189 10.2343C143 10.4249 142.893 10.6829 142.893 10.9517C142.893 11.2206 143 11.4785 143.189 11.6691C143.38 11.8587 143.638 11.9651 143.907 11.9651C144.176 11.9651 144.434 11.8587 144.625 11.6691C145.097 11.1953 145.659 10.8194 146.277 10.5628C146.896 10.3063 147.559 10.1743 148.228 10.1743C148.898 10.1743 149.561 10.3063 150.179 10.5628C150.798 10.8194 151.359 11.1953 151.832 11.6691C152.02 11.8609 152.276 11.9706 152.545 11.9744C152.751 11.9863 152.957 11.935 153.133 11.8274C153.31 11.7197 153.45 11.5608 153.534 11.3718C153.618 11.1828 153.642 10.9727 153.604 10.7695C153.565 10.5663 153.466 10.3796 153.318 10.2343C152.649 9.56944 151.854 9.04303 150.981 8.68508C150.108 8.32713 149.172 8.14466 148.228 8.14809ZM148.228 4.0775C145.26 4.08539 142.414 5.26278 140.308 7.35433C140.213 7.44921 140.138 7.56185 140.087 7.68583C140.035 7.8098 140.009 7.94267 140.009 8.07686C140.009 8.34786 140.116 8.60776 140.308 8.79939C140.5 8.99101 140.76 9.09867 141.031 9.09867C141.302 9.09867 141.562 8.99101 141.754 8.79939C143.472 7.08424 145.8 6.12086 148.228 6.12086C150.656 6.12086 152.985 7.08424 154.703 8.79939C154.798 8.8937 154.911 8.96832 155.035 9.01896C155.159 9.06961 155.292 9.09528 155.426 9.0945C155.56 9.09528 155.693 9.06961 155.817 9.01896C155.941 8.96832 156.053 8.8937 156.149 8.79939C156.244 8.70478 156.32 8.59223 156.371 8.46822C156.423 8.34421 156.45 8.2112 156.45 8.07686C156.45 7.94252 156.423 7.8095 156.371 7.68549C156.32 7.56148 156.244 7.44893 156.149 7.35433C154.043 5.26278 151.197 4.08539 148.228 4.0775ZM159.03 4.47439C157.611 3.05589 155.928 1.93063 154.074 1.16289C152.221 0.395157 150.235 0 148.228 0C146.222 0 144.236 0.395157 142.382 1.16289C140.529 1.93063 138.845 3.05589 137.427 4.47439C137.235 4.66601 137.128 4.92592 137.128 5.19692C137.128 5.46792 137.235 5.72782 137.427 5.91945C137.619 6.11107 137.879 6.21873 138.15 6.21873C138.421 6.21873 138.681 6.11107 138.873 5.91945C141.354 3.43994 144.72 2.04707 148.228 2.04707C151.737 2.04707 155.102 3.43994 157.584 5.91945C157.679 6.01483 157.791 6.09054 157.915 6.1422C158.039 6.19386 158.172 6.22046 158.307 6.22046C158.441 6.22046 158.574 6.19386 158.698 6.1422C158.822 6.09054 158.935 6.01483 159.03 5.91945C159.125 5.82484 159.201 5.71229 159.252 5.58828C159.304 5.46427 159.331 5.33126 159.331 5.19692C159.331 5.06257 159.304 4.92956 159.252 4.80555C159.201 4.68154 159.125 4.56899 159.03 4.47439Z" fill="#4775FF"/>
<path d="M5.30859 33.3945L5.83594 36.043L6.48047 33.5117L10.1836 20.9375H11.4844L15.1406 33.5117L15.7734 36.0664L16.3359 33.3945L19.418 20.9375H20.8945L16.5234 38H15.1406L11.2734 24.6523L10.8398 22.9648L10.418 24.6523L6.45703 38H5.07422L0.714844 20.9375H2.19141L5.30859 33.3945ZM27.8789 38.2344C26.8008 38.2344 25.8242 37.9688 24.9492 37.4375C24.082 36.9062 23.4062 36.168 22.9219 35.2227C22.4375 34.2695 22.1953 33.2031 22.1953 32.0234V31.5195C22.1953 30.3008 22.4297 29.2031 22.8984 28.2266C23.375 27.25 24.0352 26.4844 24.8789 25.9297C25.7227 25.3672 26.6367 25.0859 27.6211 25.0859C29.1602 25.0859 30.3789 25.6133 31.2773 26.668C32.1836 27.7148 32.6367 29.1484 32.6367 30.9688V31.7539H23.5898V32.0234C23.5898 33.4609 24 34.6602 24.8203 35.6211C25.6484 36.5742 26.6875 37.0508 27.9375 37.0508C28.6875 37.0508 29.3477 36.9141 29.918 36.6406C30.4961 36.3672 31.0195 35.9297 31.4883 35.3281L32.3672 35.9961C31.3359 37.4883 29.8398 38.2344 27.8789 38.2344ZM27.6211 26.2812C26.5664 26.2812 25.6758 26.668 24.9492 27.4414C24.2305 28.2148 23.793 29.2539 23.6367 30.5586H31.2422V30.4062C31.2031 29.1875 30.8555 28.1953 30.1992 27.4297C29.543 26.6641 28.6836 26.2812 27.6211 26.2812ZM36.9375 38H35.5312V20H36.9375V38ZM45.4453 37.0508C46.4219 37.0508 47.2383 36.7773 47.8945 36.2305C48.5586 35.6758 48.918 34.9609 48.9727 34.0859H50.3203C50.2812 34.8594 50.0391 35.5664 49.5938 36.207C49.1484 36.8398 48.5547 37.3359 47.8125 37.6953C47.0781 38.0547 46.2891 38.2344 45.4453 38.2344C43.7812 38.2344 42.4609 37.6562 41.4844 36.5C40.5156 35.3438 40.0312 33.7891 40.0312 31.8359V31.4141C40.0312 30.1641 40.25 29.0586 40.6875 28.0977C41.125 27.1367 41.75 26.3945 42.5625 25.8711C43.3828 25.3477 44.3398 25.0859 45.4336 25.0859C46.8242 25.0859 47.9688 25.5 48.8672 26.3281C49.7734 27.1562 50.2578 28.2461 50.3203 29.5977H48.9727C48.9102 28.6055 48.5508 27.8047 47.8945 27.1953C47.2461 26.5859 46.4258 26.2812 45.4336 26.2812C44.168 26.2812 43.1836 26.7383 42.4805 27.6523C41.7852 28.5664 41.4375 29.8477 41.4375 31.4961V31.9062C41.4375 33.5234 41.7852 34.7852 42.4805 35.6914C43.1836 36.5977 44.1719 37.0508 45.4453 37.0508ZM52.3594 31.4727C52.3594 30.2539 52.5938 29.1562 53.0625 28.1797C53.5391 27.2031 54.207 26.4453 55.0664 25.9062C55.9336 25.3594 56.9141 25.0859 58.0078 25.0859C59.6953 25.0859 61.0625 25.6797 62.1094 26.8672C63.1562 28.0469 63.6797 29.6133 63.6797 31.5664V31.8594C63.6797 33.0859 63.4414 34.1914 62.9648 35.1758C62.4961 36.1523 61.832 36.9062 60.9727 37.4375C60.1133 37.9688 59.1328 38.2344 58.0312 38.2344C56.3516 38.2344 54.9844 37.6445 53.9297 36.4648C52.8828 35.2773 52.3594 33.707 52.3594 31.7539V31.4727ZM53.7656 31.8594C53.7656 33.375 54.1562 34.6211 54.9375 35.5977C55.7266 36.5664 56.7578 37.0508 58.0312 37.0508C59.2969 37.0508 60.3203 36.5664 61.1016 35.5977C61.8906 34.6211 62.2852 33.3359 62.2852 31.7422V31.4727C62.2852 30.5039 62.1055 29.6172 61.7461 28.8125C61.3867 28.0078 60.8828 27.3867 60.2344 26.9492C59.5859 26.5039 58.8438 26.2812 58.0078 26.2812C56.7578 26.2812 55.7383 26.7734 54.9492 27.7578C54.1602 28.7344 53.7656 30.0156 53.7656 31.6016V31.8594ZM67.8633 25.3203L67.9102 27.3828C68.3789 26.6172 68.9648 26.043 69.668 25.6602C70.3711 25.2773 71.1523 25.0859 72.0117 25.0859C74.0117 25.0859 75.2812 25.9062 75.8203 27.5469C76.2734 26.7578 76.8789 26.1523 77.6367 25.7305C78.3945 25.3008 79.2305 25.0859 80.1445 25.0859C82.8633 25.0859 84.25 26.5703 84.3047 29.5391V38H82.8984V29.6445C82.8906 28.5117 82.6445 27.6719 82.1602 27.125C81.6836 26.5781 80.9023 26.3047 79.8164 26.3047C78.8086 26.3203 77.957 26.6484 77.2617 27.2891C76.5664 27.9219 76.1797 28.6953 76.1016 29.6094V38H74.6953V29.5391C74.6875 28.4531 74.4297 27.6445 73.9219 27.1133C73.4219 26.5742 72.6484 26.3047 71.6016 26.3047C70.7188 26.3047 69.9609 26.5586 69.3281 27.0664C68.6953 27.5664 68.2266 28.3125 67.9219 29.3047V38H66.5156V25.3203H67.8633ZM92.7773 38.2344C91.6992 38.2344 90.7227 37.9688 89.8477 37.4375C88.9805 36.9062 88.3047 36.168 87.8203 35.2227C87.3359 34.2695 87.0938 33.2031 87.0938 32.0234V31.5195C87.0938 30.3008 87.3281 29.2031 87.7969 28.2266C88.2734 27.25 88.9336 26.4844 89.7773 25.9297C90.6211 25.3672 91.5352 25.0859 92.5195 25.0859C94.0586 25.0859 95.2773 25.6133 96.1758 26.668C97.082 27.7148 97.5352 29.1484 97.5352 30.9688V31.7539H88.4883V32.0234C88.4883 33.4609 88.8984 34.6602 89.7188 35.6211C90.5469 36.5742 91.5859 37.0508 92.8359 37.0508C93.5859 37.0508 94.2461 36.9141 94.8164 36.6406C95.3945 36.3672 95.918 35.9297 96.3867 35.3281L97.2656 35.9961C96.2344 37.4883 94.7383 38.2344 92.7773 38.2344ZM92.5195 26.2812C91.4648 26.2812 90.5742 26.668 89.8477 27.4414C89.1289 28.2148 88.6914 29.2539 88.5352 30.5586H96.1406V30.4062C96.1016 29.1875 95.7539 28.1953 95.0977 27.4297C94.4414 26.6641 93.582 26.2812 92.5195 26.2812ZM108.281 22.0742V25.3203H110.906V26.4688H108.281V34.918C108.281 35.6211 108.406 36.1445 108.656 36.4883C108.914 36.832 109.34 37.0039 109.934 37.0039C110.168 37.0039 110.547 36.9648 111.07 36.8867L111.129 38.0352C110.762 38.168 110.262 38.2344 109.629 38.2344C108.668 38.2344 107.969 37.957 107.531 37.4023C107.094 36.8398 106.875 36.0156 106.875 34.9297V26.4688H104.543V25.3203H106.875V22.0742H108.281ZM112.805 31.4727C112.805 30.2539 113.039 29.1562 113.508 28.1797C113.984 27.2031 114.652 26.4453 115.512 25.9062C116.379 25.3594 117.359 25.0859 118.453 25.0859C120.141 25.0859 121.508 25.6797 122.555 26.8672C123.602 28.0469 124.125 29.6133 124.125 31.5664V31.8594C124.125 33.0859 123.887 34.1914 123.41 35.1758C122.941 36.1523 122.277 36.9062 121.418 37.4375C120.559 37.9688 119.578 38.2344 118.477 38.2344C116.797 38.2344 115.43 37.6445 114.375 36.4648C113.328 35.2773 112.805 33.707 112.805 31.7539V31.4727ZM114.211 31.8594C114.211 33.375 114.602 34.6211 115.383 35.5977C116.172 36.5664 117.203 37.0508 118.477 37.0508C119.742 37.0508 120.766 36.5664 121.547 35.5977C122.336 34.6211 122.73 33.3359 122.73 31.7422V31.4727C122.73 30.5039 122.551 29.6172 122.191 28.8125C121.832 28.0078 121.328 27.3867 120.68 26.9492C120.031 26.5039 119.289 26.2812 118.453 26.2812C117.203 26.2812 116.184 26.7734 115.395 27.7578C114.605 28.7344 114.211 30.0156 114.211 31.6016V31.8594Z" fill="#4775FF"/>
</svg>
