<svg width="94" height="125" viewBox="0 0 94 125" fill="none" xmlns="http://www.w3.org/2000/svg">
<path d="M76.8295 71.9649C69.9165 62.5781 60.4896 56.3203 46.9776 56.3203C33.4657 56.3203 24.0388 62.5781 17.1257 71.9649H76.8295Z" fill="#4775FF"/>
<path d="M78.7149 122.027H15.2403C11.7838 122.027 9.26997 119.524 8.95574 116.082L6.44189 75.4067C6.44189 71.9648 9.26997 68.8359 12.7265 68.8359H81.2288C84.9995 68.8359 87.8276 71.9648 87.5134 75.4067L84.9995 116.082C84.6853 119.524 82.1715 122.027 78.7149 122.027Z" fill="#B0BEC5"/>
<path d="M78.4006 81.3516C80.1361 81.3516 81.5429 79.9507 81.5429 78.2227C81.5429 76.4946 80.1361 75.0938 78.4006 75.0938C76.6652 75.0938 75.2583 76.4946 75.2583 78.2227C75.2583 79.9507 76.6652 81.3516 78.4006 81.3516Z" fill="#C4D3FF"/>
<path d="M46.9776 50.0626C60.8611 50.0626 72.116 38.8557 72.116 25.0313C72.116 11.2069 60.8611 0 46.9776 0C33.094 0 21.8391 11.2069 21.8391 25.0313C21.8391 38.8557 33.094 50.0626 46.9776 50.0626Z" fill="#FFCC47"/>
<path d="M22.1533 120.15L18.6967 123.592C16.8113 125.469 13.669 125.469 11.7836 123.592L1.41404 113.266C-0.471346 111.389 -0.471346 108.26 1.41404 106.383L4.87058 102.941C8.95557 98.8735 14.6117 98.8735 18.6967 102.941L22.1533 106.383C25.924 110.45 25.924 116.395 22.1533 120.15Z" fill="#FFCC47"/>
<path d="M71.8017 106.383L75.2582 102.941C79.3432 98.8735 84.9994 98.8735 89.0844 102.941L92.5409 106.383C94.4263 108.26 94.4263 111.389 92.5409 113.266L82.1713 123.592C80.2859 125.469 77.1436 125.469 75.2582 123.592L71.8017 120.15C68.0309 116.395 68.0309 110.45 71.8017 106.383Z" fill="#FFCC47"/>
</svg>
