<svg width="76" height="111" viewBox="0 0 76 111" fill="none" xmlns="http://www.w3.org/2000/svg">
<path d="M75.8333 110.833L37.9167 93.3333L0 110.833V11.6667C0 5.25 5.25 0 11.6667 0H64.1666C70.5833 0 75.8333 5.25 75.8333 11.6667V110.833Z" fill="#EF0909"/>
<path d="M49.2069 22.6748C44.465 22.6748 40.2876 25.0458 37.9166 28.7716C35.5456 25.0458 31.3682 22.6748 26.6263 22.6748C19.1747 22.6748 13.0779 28.7716 13.0779 36.2232C13.0779 49.6587 37.9166 63.32 37.9166 63.32C37.9166 63.32 62.7553 49.7716 62.7553 36.2232C62.7553 28.7716 56.6585 22.6748 49.2069 22.6748Z" fill="white"/>
</svg>
