<svg width="2310" height="2691" viewBox="0 0 2310 2691" fill="none" xmlns="http://www.w3.org/2000/svg">
<path d="M588.53 2058.77C566.66 2058.77 547.005 2053.81 529.565 2043.89C512.125 2033.98 498.421 2020.38 488.455 2003.1C478.766 1985.54 473.922 1965.71 473.922 1943.61C473.922 1921.51 478.766 1901.83 488.455 1884.55C498.421 1866.98 512.125 1853.39 529.565 1843.75C547.005 1833.84 566.66 1828.88 588.53 1828.88C610.399 1828.88 629.916 1833.84 647.079 1843.75C664.52 1853.39 678.085 1866.98 687.774 1884.55C697.739 1901.83 702.722 1921.51 702.722 1943.61C702.722 1965.71 697.739 1985.54 687.774 2003.1C678.085 2020.38 664.52 2033.98 647.079 2043.89C629.916 2053.81 610.399 2058.77 588.53 2058.77ZM588.53 2023.07C602.648 2023.07 615.244 2019.81 626.317 2013.3C637.667 2006.5 646.526 1997.15 652.893 1985.25C659.26 1973.07 662.444 1959.19 662.444 1943.61C662.444 1928.03 659.26 1914.29 652.893 1902.39C646.526 1890.21 637.667 1880.86 626.317 1874.35C615.244 1867.83 602.648 1864.57 588.53 1864.57C574.411 1864.57 561.677 1867.83 550.327 1874.35C539.254 1880.86 530.395 1890.21 523.751 1902.39C517.384 1914.29 514.201 1928.03 514.201 1943.61C514.201 1959.19 517.384 1973.07 523.751 1985.25C530.395 1997.15 539.254 2006.5 550.327 2013.3C561.677 2019.81 574.411 2023.07 588.53 2023.07Z" fill="#4775FF"/>
<path d="M1683.61 2058.77C1661.74 2058.77 1642.09 2053.81 1624.65 2043.89C1607.21 2033.98 1593.51 2020.38 1583.54 2003.1C1573.85 1985.54 1569.01 1965.71 1569.01 1943.61C1569.01 1921.51 1573.85 1901.83 1583.54 1884.55C1593.51 1866.98 1607.21 1853.39 1624.65 1843.75C1642.09 1833.84 1661.74 1828.88 1683.61 1828.88C1705.48 1828.88 1725 1833.84 1742.16 1843.75C1759.6 1853.39 1773.17 1866.98 1782.86 1884.55C1792.82 1901.83 1797.81 1921.51 1797.81 1943.61C1797.81 1965.71 1792.82 1985.54 1782.86 2003.1C1773.17 2020.38 1759.6 2033.98 1742.16 2043.89C1725 2053.81 1705.48 2058.77 1683.61 2058.77ZM1683.61 2023.07C1697.73 2023.07 1710.33 2019.81 1721.4 2013.3C1732.75 2006.5 1741.61 1997.15 1747.98 1985.25C1754.34 1973.07 1757.53 1959.19 1757.53 1943.61C1757.53 1928.03 1754.34 1914.29 1747.98 1902.39C1741.61 1890.21 1732.75 1880.86 1721.4 1874.35C1710.33 1867.83 1697.73 1864.57 1683.61 1864.57C1669.5 1864.57 1656.76 1867.83 1645.41 1874.35C1634.34 1880.86 1625.48 1890.21 1618.84 1902.39C1612.47 1914.29 1609.28 1928.03 1609.28 1943.61C1609.28 1959.19 1612.47 1973.07 1618.84 1985.25C1625.48 1997.15 1634.34 2006.5 1645.41 2013.3C1656.76 2019.81 1669.5 2023.07 1683.61 2023.07Z" fill="#4775FF"/>
<path d="M425.442 1831.17C434.224 1831.17 441.343 1838.3 441.343 1847.1V1955.34C441.343 1988.39 432.793 2013.82 415.693 2031.62C398.592 2049.42 373.827 2058.32 341.396 2058.32C303.068 2058.32 276.533 2044.9 261.792 2018.06C254.126 2031.62 243.66 2041.79 230.393 2048.57C217.42 2055.07 201.205 2058.32 181.746 2058.32C149.02 2058.32 124.107 2049.42 107.007 2031.62C90.2014 2013.82 81.7988 1988.39 81.7988 1955.34V1847.1C81.7988 1838.3 88.9177 1831.17 97.6993 1831.17H108.354C117.135 1831.17 124.254 1838.3 124.254 1847.1V1951.52C124.254 1975.54 128.824 1993.34 137.964 2004.92C147.103 2016.22 161.697 2021.87 181.746 2021.87C201.794 2021.87 216.536 2016.08 225.97 2004.49C235.699 1992.91 240.564 1975.25 240.564 1951.52V1847.1C240.564 1838.3 247.683 1831.17 256.465 1831.17H267.119C275.901 1831.17 283.02 1838.3 283.02 1847.1V1951.52C283.02 1975.25 287.737 1992.91 297.171 2004.49C306.901 2016.08 321.79 2021.87 341.838 2021.87C361.591 2021.87 376.038 2016.22 385.178 2004.92C394.317 1993.34 398.887 1975.54 398.887 1951.52V1847.1C398.887 1838.3 406.006 1831.17 414.788 1831.17H425.442Z" fill="#4775FF"/>
<path d="M999.836 1951.73L950.323 1995.74V2042.09C950.323 2051.05 943.077 2058.32 934.139 2058.32H923.295C914.357 2058.32 907.111 2051.05 907.111 2042.09V1754.35C907.111 1745.38 914.357 1738.12 923.295 1738.12H934.139C943.077 1738.12 950.323 1745.38 950.323 1754.35V1943.53L1074.31 1834.94C1078.24 1831.5 1083.28 1829.6 1088.5 1829.6H1105.37C1115.15 1829.6 1119.88 1841.6 1112.75 1848.31L1032.24 1924.11L1127.98 2040.62C1133.78 2047.68 1128.77 2058.32 1119.65 2058.32H1096.94C1092.16 2058.32 1087.64 2056.2 1084.56 2052.54L999.836 1951.73Z" fill="#4775FF"/>
<path d="M1360.73 1771.94C1335.97 1771.94 1323.59 1785.21 1323.59 1811.75V1831.44H1379.9C1385.77 1831.44 1390.52 1836.28 1390.52 1842.26V1854.44C1390.52 1860.41 1385.77 1865.26 1379.9 1865.26H1324.46V2042.09C1324.46 2051.05 1317.32 2058.32 1308.53 2058.32H1298.94C1290.14 2058.32 1283 2051.05 1283 2042.09V1811.32C1283 1788.77 1289.62 1770.94 1302.87 1757.81C1316.11 1744.68 1334.68 1738.12 1358.57 1738.12C1367.78 1738.12 1376.42 1739.26 1384.48 1741.54C1389.48 1742.96 1394.03 1744.76 1398.14 1746.94C1402.47 1749.24 1403.91 1754.62 1402.07 1759.22L1397.84 1769.77C1395.22 1776.3 1387.24 1778.48 1380.83 1775.83C1374.55 1773.23 1367.85 1771.94 1360.73 1771.94Z" fill="#4775FF"/>
<path d="M1475.98 1868.24C1483.31 1855.02 1494.15 1844.97 1508.52 1838.07C1518.94 1833.07 1530.98 1829.88 1544.64 1828.5C1553.55 1827.61 1560.83 1835.04 1560.83 1844.06V1858.05C1560.83 1863.24 1556.31 1867.38 1551.16 1867.38C1528.3 1867.38 1510.27 1874.13 1497.09 1887.64C1484.19 1900.85 1477.74 1919.82 1477.74 1944.53V2041.98C1477.74 2051 1470.48 2058.32 1461.52 2058.32H1451.76C1442.8 2058.32 1435.54 2051 1435.54 2041.98V1846.22C1435.54 1837.2 1442.8 1829.88 1451.76 1829.88H1459.76C1468.72 1829.88 1475.98 1837.2 1475.98 1846.22V1868.24Z" fill="#4775FF"/>
<path d="M781.407 1868.24C788.734 1855.02 799.579 1844.97 813.94 1838.07C824.36 1833.07 836.399 1829.88 850.059 1828.5C858.973 1827.61 866.257 1835.04 866.257 1844.06V1858.05C866.257 1863.24 861.734 1867.38 856.584 1867.38C833.724 1867.38 815.699 1874.13 802.51 1887.64C789.614 1900.85 783.166 1919.82 783.166 1944.53V2041.98C783.166 2051 775.903 2058.32 766.945 2058.32H757.182C748.223 2058.32 740.961 2051 740.961 2041.98V1846.22C740.961 1837.2 748.223 1829.88 757.182 1829.88H765.186C774.145 1829.88 781.407 1837.2 781.407 1846.22V1868.24Z" fill="#4775FF"/>
<path d="M2132.12 1828.43C2161.63 1828.43 2184.94 1836.74 2202.06 1853.35C2219.47 1869.97 2228.17 1894.6 2228.17 1927.26V2042.03C2228.17 2051.02 2220.86 2058.32 2211.84 2058.32H2202.01C2192.99 2058.32 2185.68 2051.02 2185.68 2042.03V1931.99C2185.68 1909.93 2180.37 1893.31 2169.74 1882.14C2159.42 1870.97 2144.51 1865.38 2125.04 1865.38C2103.5 1865.38 2086.38 1871.97 2073.7 1885.15C2061.01 1898.04 2054.66 1916.66 2054.66 1941.01V2042.03C2054.66 2051.02 2047.35 2058.32 2038.33 2058.32H2028.5C2019.48 2058.32 2012.17 2051.02 2012.17 2042.03V1931.99C2012.17 1909.93 2006.86 1893.31 1996.24 1882.14C1985.91 1870.97 1971.01 1865.38 1951.53 1865.38C1929.99 1865.38 1912.88 1871.97 1900.19 1885.15C1887.5 1898.04 1881.16 1916.66 1881.16 1941.01V2042.03C1881.16 2051.02 1873.84 2058.32 1864.82 2058.32H1855C1845.98 2058.32 1838.66 2051.02 1838.66 2042.03V1846.87C1838.66 1837.87 1845.98 1830.58 1855 1830.58H1863.05C1872.07 1830.58 1879.38 1837.87 1879.38 1846.87V1864.53C1887.94 1852.78 1899.16 1843.9 1913.02 1837.88C1926.89 1831.58 1942.68 1828.43 1960.38 1828.43C1978.68 1828.43 1994.91 1832.01 2009.07 1839.17C2023.24 1846.34 2034.15 1856.79 2041.83 1870.54C2050.68 1857.36 2062.92 1847.05 2078.56 1839.6C2094.5 1832.16 2112.35 1828.43 2132.12 1828.43Z" fill="#4775FF"/>
<path d="M341.149 2677.23C330.476 2677.23 320.477 2672.01 314.371 2663.26L222.918 2532.16C218.672 2532.63 212.303 2532.87 203.811 2532.87H91.9979V2644.58C91.9979 2662.61 77.3802 2677.23 59.3483 2677.23H32.6496C14.6177 2677.23 0 2662.61 0 2644.58V2214.51C0 2196.48 14.6177 2181.86 32.6496 2181.86H203.811C246.743 2181.86 284.014 2188.93 315.624 2203.09C347.705 2217.24 372.238 2237.53 389.222 2263.95C406.206 2290.37 414.698 2321.74 414.698 2358.07C414.698 2395.34 405.499 2427.42 387.099 2454.31C369.171 2481.21 343.223 2501.26 309.255 2514.47L387.229 2625.86C402.377 2647.5 386.896 2677.23 360.482 2677.23H341.149ZM321.993 2358.07C321.993 2326.46 311.613 2302.16 290.855 2285.18C270.096 2268.19 239.666 2259.7 199.565 2259.7H91.9979V2457.14H199.565C239.666 2457.14 270.096 2448.65 290.855 2431.67C311.613 2414.21 321.993 2389.68 321.993 2358.07Z" fill="#4775FF"/>
<path d="M341.149 2677.23C330.476 2677.23 320.477 2672.01 314.371 2663.26L222.918 2532.16C218.672 2532.63 212.303 2532.87 203.811 2532.87H91.9979V2644.58C91.9979 2662.61 77.3802 2677.23 59.3483 2677.23H32.6496C14.6177 2677.23 0 2662.61 0 2644.58V2214.51C0 2196.48 14.6177 2181.86 32.6496 2181.86H203.811C246.743 2181.86 284.014 2188.93 315.624 2203.09C347.705 2217.24 372.238 2237.53 389.222 2263.95C406.206 2290.37 414.698 2321.74 414.698 2358.07C414.698 2395.34 405.499 2427.42 387.099 2454.31C369.171 2481.21 343.223 2501.26 309.255 2514.47L387.229 2625.86C402.377 2647.5 386.896 2677.23 360.482 2677.23H341.149ZM321.993 2358.07C321.993 2326.46 311.613 2302.16 290.855 2285.18C270.096 2268.19 239.666 2259.7 199.565 2259.7H91.9979V2457.14H199.565C239.666 2457.14 270.096 2448.65 290.855 2431.67C311.613 2414.21 321.993 2389.68 321.993 2358.07Z" fill="#4775FF"/>
<path d="M2124.77 2181.86C2182.95 2181.86 2228.36 2198.87 2261 2232.9C2293.64 2266.46 2309.96 2314.9 2309.96 2378.23V2652.5C2309.96 2670.56 2295.31 2685.21 2277.23 2685.21H2250.46C2232.38 2685.21 2217.72 2670.56 2217.72 2652.5V2381.78C2217.72 2342.55 2207.32 2313.01 2186.5 2293.16C2166.16 2272.84 2139.43 2262.68 2106.32 2262.68C2069.43 2262.68 2039.86 2273.08 2017.63 2293.87C1995.87 2314.67 1984.99 2346.57 1984.99 2389.58V2652.5C1984.99 2670.56 1970.33 2685.21 1952.25 2685.21H1925.48C1907.4 2685.21 1892.75 2670.56 1892.75 2652.5V2381.78C1892.75 2342.08 1883.05 2312.3 1863.66 2292.45C1844.74 2272.6 1818.72 2262.68 1785.61 2262.68C1748.24 2262.68 1718.2 2273.31 1695.49 2294.58C1673.26 2315.38 1662.15 2347.04 1662.15 2389.58V2652.5C1662.15 2670.56 1647.49 2685.21 1629.41 2685.21H1602.64C1584.56 2685.21 1569.9 2670.56 1569.9 2652.5V2221.66C1569.9 2203.59 1584.56 2188.95 1602.64 2188.95H1626.57C1644.65 2188.95 1659.31 2203.59 1659.31 2221.66V2254.17C1674.44 2231.01 1695.02 2213.29 1721.04 2201C1747.05 2188.24 1777.09 2181.86 1811.15 2181.86C1846.16 2181.86 1876.67 2188.47 1902.68 2201.71C1928.7 2214.94 1948.33 2233.61 1961.57 2257.71C1978.13 2233.61 2000.6 2214.94 2028.98 2201.71C2057.84 2188.47 2089.77 2181.86 2124.77 2181.86Z" fill="#4775FF"/>
<path d="M713.319 2690.65C663.906 2690.65 619.498 2679.68 580.093 2657.73C540.688 2635.79 509.727 2605.69 487.21 2567.45C465.319 2528.58 454.373 2484.69 454.373 2435.78C454.373 2386.88 465.319 2343.3 487.21 2305.06C509.727 2266.19 540.688 2236.09 580.093 2214.77C619.498 2192.83 663.906 2181.86 713.319 2181.86C762.731 2181.86 806.827 2192.83 845.606 2214.77C885.011 2236.09 915.659 2266.19 937.55 2305.06C960.067 2343.3 971.326 2386.88 971.326 2435.78C971.326 2484.69 960.067 2528.58 937.55 2567.45C915.659 2605.69 885.011 2635.79 845.606 2657.73C806.827 2679.68 762.731 2690.65 713.319 2690.65ZM713.319 2611.65C745.218 2611.65 773.677 2604.44 798.695 2590.02C824.34 2574.97 844.355 2554.28 858.741 2527.95C873.127 2500.99 880.32 2470.27 880.32 2435.78C880.32 2401.3 873.127 2370.89 858.741 2344.56C844.355 2317.6 824.34 2296.91 798.695 2282.49C773.677 2268.07 745.218 2260.86 713.319 2260.86C681.419 2260.86 652.648 2268.07 627.003 2282.49C601.984 2296.91 581.969 2317.6 566.958 2344.56C552.572 2370.89 545.379 2401.3 545.379 2435.78C545.379 2470.27 552.572 2500.99 566.958 2527.95C581.969 2554.28 601.984 2574.97 627.003 2590.02C652.648 2604.44 681.419 2611.65 713.319 2611.65Z" fill="#4775FF"/>
<path d="M1265.27 2173.89C1309.7 2173.89 1348.45 2182.64 1381.54 2200.12C1414.62 2217.61 1440.14 2243.61 1458.1 2278.11C1476.53 2312.14 1485.75 2353.49 1485.75 2402.17V2665.24C1485.75 2671.87 1480.38 2677.24 1473.75 2677.24H1405.59C1398.96 2677.24 1393.59 2671.87 1393.59 2665.24V2549.63H1135.53V2665.24C1135.53 2671.87 1130.16 2677.24 1123.53 2677.24H1056.79C1050.16 2677.24 1044.79 2671.87 1044.79 2665.24V2402.17C1044.79 2353.49 1053.77 2312.14 1071.73 2278.11C1090.16 2243.61 1115.92 2217.61 1149 2200.12C1182.09 2182.64 1220.84 2173.89 1265.27 2173.89ZM1393.59 2472.36V2393.67C1393.59 2347.82 1382.25 2313.32 1359.56 2290.16C1336.87 2266.53 1305.21 2254.71 1264.56 2254.71C1223.92 2254.71 1192.25 2266.53 1169.56 2290.16C1146.88 2313.32 1135.53 2347.82 1135.53 2393.67V2472.36H1393.59Z" fill="#4775FF"/>
<path fill-rule="evenodd" clip-rule="evenodd" d="M806.788 503.292C788.642 504.455 773.313 505.439 762.012 505.439C690.108 505.439 638.747 460.498 638.747 397.582V224.601C638.747 220.246 632.637 218.988 630.833 222.953C615.296 257.083 598.305 288.224 581.071 319.808C546.693 382.815 511.351 447.589 484.666 541.391C452.343 655.011 586.103 741.696 638.747 741.696H739.831C739.209 748.885 738.891 756.414 738.891 764.301C738.891 906.345 804.904 1125.38 905.963 1277.62C878.695 1411.19 929.014 1510.95 953.666 1514.63C966.676 1516.57 976.842 1497.17 984.994 1481.62C992.376 1467.54 998.105 1456.61 1002.8 1467.53C1004.12 1470.6 1006.09 1475.73 1008.66 1482.41L1008.66 1482.42C1028.89 1535.09 1086.15 1684.16 1154.9 1684.16C1219.52 1684.16 1267.05 1558.96 1290.91 1496.13C1295.65 1483.64 1299.45 1473.62 1302.27 1467.53C1307.77 1455.66 1313.22 1466.23 1320.53 1480.38C1327.77 1494.39 1336.82 1511.92 1349.51 1514.63C1375.96 1520.28 1431.7 1432.68 1404.31 1275.37C1403.93 1273.19 1403.45 1271.08 1402.88 1269.01C1498.02 1126.93 1560.66 926.844 1560.66 764.301C1560.66 756.414 1560.32 748.885 1559.67 741.696H1671.09C1723.74 741.696 1857.5 655.011 1825.17 541.391C1798.49 447.589 1763.15 382.815 1728.77 319.808L1728.77 319.806C1711.53 288.222 1694.54 257.082 1679.01 222.953C1677.2 218.988 1671.09 220.246 1671.09 224.601V397.582C1671.09 460.498 1619.73 505.439 1547.83 505.439C1536.53 505.439 1521.2 504.455 1503.05 503.292C1405.74 497.05 1227.43 485.613 1154.92 592.751C1082.41 485.613 904.098 497.05 806.788 503.292ZM1154.92 592.751C1154.92 593.383 1154.92 594.019 1154.92 594.658C1154.92 594.019 1154.92 593.383 1154.92 592.751Z" fill="#4775FF"/>
<ellipse cx="1154.91" cy="1314.37" rx="208.01" ry="136.105" fill="#FFCC47"/>
<circle cx="1036.77" cy="1340.04" r="25.6802" fill="#4775FF"/>
<circle cx="1273.04" cy="1340.04" r="25.6802" fill="#4775FF"/>
<path d="M1154.35 285.891C1088.09 286.12 1024.57 312.414 977.545 359.089C970.892 365.779 967.158 374.829 967.158 384.262C967.158 393.695 970.892 402.744 977.545 409.434C984.237 416.085 993.29 419.817 1002.73 419.817C1012.16 419.817 1021.22 416.085 1027.91 409.434C1044.5 392.808 1064.21 379.618 1085.9 370.617C1107.6 361.617 1130.86 356.984 1154.35 356.984C1177.85 356.984 1201.11 361.617 1222.8 370.617C1244.5 379.618 1264.21 392.808 1280.8 409.434C1287.4 416.162 1296.38 420.012 1305.8 420.146C1313.05 420.563 1320.25 418.763 1326.45 414.985C1332.65 411.208 1337.55 405.632 1340.5 399.001C1343.45 392.37 1344.3 384.998 1342.95 377.867C1341.61 370.737 1338.12 364.187 1332.95 359.089C1309.45 335.762 1281.58 317.292 1250.94 304.733C1220.29 292.173 1187.47 285.771 1154.35 285.891ZM1154.35 143.067C1050.2 143.344 950.347 184.655 876.459 258.041C873.129 261.37 870.487 265.322 868.685 269.672C866.882 274.022 865.955 278.684 865.955 283.392C865.955 292.9 869.733 302.02 876.459 308.743C883.185 315.467 892.308 319.244 901.82 319.244C911.332 319.244 920.454 315.467 927.181 308.743C987.457 248.564 1069.16 214.762 1154.35 214.762C1239.55 214.762 1321.25 248.564 1381.53 308.743C1384.87 312.052 1388.82 314.671 1393.18 316.448C1397.53 318.224 1402.19 319.125 1406.89 319.098C1411.59 319.125 1416.25 318.224 1420.6 316.448C1424.95 314.671 1428.91 312.052 1432.25 308.743C1435.6 305.424 1438.26 301.475 1440.07 297.124C1441.88 292.772 1442.82 288.106 1442.82 283.392C1442.82 278.678 1441.88 274.011 1440.07 269.66C1438.26 265.309 1435.6 261.36 1432.25 258.041C1358.36 184.655 1258.51 143.344 1154.35 143.067ZM1533.34 156.992C1483.58 107.222 1424.5 67.7397 1359.47 40.8023C1294.44 13.8648 1224.74 0 1154.35 0C1083.97 0 1014.27 13.8648 949.238 40.8023C884.211 67.7397 825.131 107.222 775.374 156.992C768.648 163.716 764.869 172.835 764.869 182.344C764.869 191.852 768.648 200.971 775.374 207.695C782.1 214.419 791.222 218.196 800.735 218.196C810.247 218.196 819.369 214.419 826.095 207.695C913.171 120.697 1031.24 71.8254 1154.35 71.8254C1277.47 71.8254 1395.54 120.697 1482.61 207.695C1485.93 211.042 1489.89 213.698 1494.24 215.511C1498.59 217.324 1503.26 218.257 1507.97 218.257C1512.69 218.257 1517.36 217.324 1521.71 215.511C1526.06 213.698 1530.02 211.042 1533.34 207.695C1536.68 204.376 1539.34 200.427 1541.15 196.075C1542.97 191.724 1543.9 187.057 1543.9 182.344C1543.9 177.63 1542.97 172.963 1541.15 168.612C1539.34 164.261 1536.68 160.312 1533.34 156.992Z" fill="#4775FF"/>
</svg>
