<svg width="3073" height="453" viewBox="0 0 3073 453" fill="none" xmlns="http://www.w3.org/2000/svg">
<path d="M1269.98 451.547C1263.45 451.547 1257.33 448.359 1253.58 443.006L1167.47 319.808C1163.6 320.236 1157.81 320.45 1150.08 320.45H1048.33V431.547C1048.33 442.593 1039.38 451.547 1028.33 451.547H984.617C973.572 451.547 964.617 442.593 964.617 431.547V21.704C964.617 10.6583 973.571 1.70398 984.617 1.70398H1150.08C1189.15 1.70398 1223.06 8.1303 1251.83 20.983C1281.02 33.8356 1303.34 52.2579 1318.8 76.2495C1334.26 100.241 1341.98 128.731 1341.98 161.72C1341.98 195.565 1333.61 224.698 1316.87 249.118C1300.55 273.538 1276.94 291.746 1246.03 303.742L1327.63 420.062C1336.92 433.316 1327.44 451.547 1311.25 451.547H1269.98ZM1257.62 161.72C1257.62 133.015 1248.18 110.952 1229.29 95.5285C1210.4 80.1053 1182.71 72.3937 1146.22 72.3937H1048.33V251.688H1146.22C1182.71 251.688 1210.4 243.977 1229.29 228.554C1248.18 212.702 1257.62 190.424 1257.62 161.72Z" fill="#4775FF"/>
<path d="M2907.39 1.70392C2959.24 1.70392 2999.7 16.91 3028.78 47.3219C3057.87 77.3115 3072.41 120.606 3072.41 177.206V431.547C3072.41 442.593 3063.45 451.547 3052.41 451.547H3010.22C2999.17 451.547 2990.22 442.593 2990.22 431.547V180.374C2990.22 145.316 2980.94 118.917 2962.4 101.176C2944.27 83.0136 2920.46 73.9323 2890.95 73.9323C2858.08 73.9323 2831.73 83.2248 2811.92 101.81C2792.54 120.395 2782.84 148.906 2782.84 187.343V431.547C2782.84 442.593 2773.89 451.547 2762.84 451.547H2720.65C2709.6 451.547 2700.65 442.593 2700.65 431.547V180.374C2700.65 144.893 2692.01 118.283 2674.73 100.543C2657.87 82.8025 2634.69 73.9323 2605.18 73.9323C2571.88 73.9323 2545.12 83.436 2524.89 102.443C2505.08 121.029 2495.17 149.329 2495.17 187.343V431.547C2495.17 442.593 2486.22 451.547 2475.17 451.547H2432.98C2421.93 451.547 2412.98 442.593 2412.98 431.547V28.0397C2412.98 16.994 2421.93 8.03974 2432.98 8.03974H2472.64C2483.69 8.03974 2492.64 16.994 2492.64 28.0397V66.3292C2506.13 45.6322 2524.46 29.7928 2547.65 18.8107C2570.83 7.40623 2597.59 1.70392 2627.94 1.70392C2659.13 1.70392 2686.32 7.61728 2709.5 19.4441C2732.68 31.271 2750.17 47.9553 2761.98 69.4971C2776.73 47.9553 2796.75 31.271 2822.04 19.4441C2847.75 7.61728 2876.2 1.70392 2907.39 1.70392Z" fill="#4775FF"/>
<path d="M1627.45 449.843C1582.64 449.843 1542.22 440.264 1506.2 421.104C1470.18 401.527 1441.91 374.661 1421.39 340.507C1400.87 305.935 1390.61 267.407 1390.61 224.922C1390.61 182.437 1400.87 144.117 1421.39 109.962C1441.91 75.3904 1470.18 48.5246 1506.2 29.3646C1542.22 9.7881 1582.64 -6.10352e-05 1627.45 -6.10352e-05C1672.27 -6.10352e-05 1712.69 9.7881 1748.71 29.3646C1784.73 48.5246 1813 75.1821 1833.52 109.337C1854.04 143.492 1864.3 182.02 1864.3 224.922C1864.3 267.824 1854.04 306.352 1833.52 340.507C1813 374.661 1784.73 401.527 1748.71 421.104C1712.69 440.264 1672.27 449.843 1627.45 449.843ZM1627.45 378.618C1656.77 378.618 1683.16 372.162 1706.61 359.25C1730.07 345.921 1748.5 327.595 1761.9 304.269C1775.3 280.528 1782 254.078 1782 224.922C1782 195.765 1775.3 169.524 1761.9 146.199C1748.5 122.457 1730.07 104.13 1706.61 91.2183C1683.16 77.8895 1656.77 71.2251 1627.45 71.2251C1598.14 71.2251 1571.75 77.8895 1548.3 91.2183C1524.84 104.13 1506.41 122.457 1493.01 146.199C1479.61 169.524 1472.91 195.765 1472.91 224.922C1472.91 254.078 1479.61 280.528 1493.01 304.269C1506.41 327.595 1524.84 345.921 1548.3 359.25C1571.75 372.162 1598.14 378.618 1627.45 378.618Z" fill="#4775FF"/>
<path d="M2126.81 -6.10352e-05C2166.66 -6.10352e-05 2201.43 7.81401 2231.1 23.4424C2260.77 39.0708 2283.67 62.3023 2299.78 93.1366C2316.31 123.549 2324.58 160.508 2324.58 204.014V429.843C2324.58 440.889 2315.62 449.843 2304.58 449.843H2261.91C2250.86 449.843 2241.91 440.889 2241.91 429.843V335.799H2010.45V429.843C2010.45 440.889 2001.49 449.843 1990.45 449.843H1949.05C1938.01 449.843 1929.05 440.889 1929.05 429.843V204.014C1929.05 160.508 1937.11 123.549 1953.22 93.1366C1969.75 62.3023 1992.85 39.0708 2022.53 23.4424C2052.2 7.81401 2086.97 -6.10352e-05 2126.81 -6.10352e-05ZM2241.91 266.738V196.411C2241.91 155.439 2231.74 124.604 2211.39 103.907C2191.04 82.788 2162.64 72.2283 2126.18 72.2283C2089.72 72.2283 2061.32 82.788 2040.97 103.907C2020.62 124.604 2010.45 155.439 2010.45 196.411V266.738H2241.91Z" fill="#4775FF"/>
<path d="M78.0055 300.131C63.0045 300.131 51.6703 303.474 44.0031 310.158C36.3359 316.843 32.5023 326.703 32.5023 339.738V354.779H94.9705C102.585 354.779 108.758 360.951 108.758 368.566C108.758 376.18 102.585 382.353 94.9705 382.353H32.5023V433.283C32.5023 442.258 25.2264 449.534 16.2512 449.534C7.27589 449.534 0 442.258 0 433.283V339.738C0 318.514 6.75048 301.886 20.2514 289.854C33.9191 277.654 52.6704 271.554 76.5054 271.554C86.5061 271.554 95.8401 272.641 104.507 274.813C109.129 275.971 113.442 277.415 117.447 279.143C123.389 281.707 125.588 288.671 123.259 294.709C120.077 302.956 109.875 306.01 101.432 303.391C94.4297 301.218 86.6208 300.131 78.0055 300.131Z" fill="#FFCC47"/>
<path d="M276.104 449.534C271.409 449.534 267.011 447.236 264.33 443.382L232.857 398.146C231.357 398.313 229.107 398.396 226.107 398.396H186.604V433.283C186.604 442.258 179.328 449.534 170.353 449.534C161.377 449.534 154.102 442.258 154.102 433.283V294.061C154.102 283.015 163.056 274.061 174.102 274.061H226.107C241.274 274.061 254.442 276.568 265.609 281.581C276.944 286.595 285.611 293.781 291.611 303.139C297.612 312.498 300.612 323.611 300.612 336.479C300.612 349.681 297.362 361.045 290.861 370.571C284.528 380.097 275.36 387.199 263.359 391.879L287.865 426.979C294.504 436.487 287.701 449.534 276.104 449.534ZM267.86 336.479C267.86 325.282 264.193 316.676 256.859 310.66C249.525 304.643 238.774 301.635 224.607 301.635H186.604V371.574H224.607C238.774 371.574 249.525 368.566 256.859 362.55C264.193 356.366 267.86 347.676 267.86 336.479Z" fill="#FFCC47"/>
<path d="M418.729 452.041C400.895 452.041 384.81 448.197 370.476 440.51C356.142 432.655 344.891 421.876 336.724 408.173C328.556 394.302 324.473 378.844 324.473 361.798C324.473 344.752 328.556 329.377 336.724 315.673C344.891 301.803 356.142 291.023 370.476 283.336C384.81 275.482 400.895 271.554 418.729 271.554C436.564 271.554 452.648 275.482 466.983 283.336C481.317 291.023 492.568 301.719 500.735 315.423C508.902 329.126 512.986 344.585 512.986 361.798C512.986 379.011 508.902 394.469 500.735 408.173C492.568 421.876 481.317 432.655 466.983 440.51C452.648 448.197 436.564 452.041 418.729 452.041ZM418.729 423.464C430.397 423.464 440.898 420.874 450.232 415.693C459.566 410.345 466.899 402.992 472.233 393.634C477.567 384.108 480.234 373.496 480.234 361.798C480.234 350.099 477.567 339.571 472.233 330.212C466.899 320.687 459.566 313.334 450.232 308.153C440.898 302.805 430.397 300.131 418.729 300.131C407.062 300.131 396.561 302.805 387.227 308.153C377.893 313.334 370.559 320.687 365.226 330.212C359.892 339.571 357.225 350.099 357.225 361.798C357.225 373.496 359.892 384.108 365.226 393.634C370.559 402.992 377.893 410.345 387.227 415.693C396.561 420.874 407.062 423.464 418.729 423.464Z" fill="#FFCC47"/>
<path d="M743.094 271.554C763.611 271.554 779.624 277.575 791.133 289.616C802.643 301.49 808.397 318.633 808.397 341.043V433.403C808.397 442.385 801.116 449.666 792.134 449.666C783.152 449.666 775.871 442.385 775.871 433.403V342.297C775.871 328.416 772.201 317.964 764.862 310.94C757.69 303.748 748.265 300.153 736.589 300.153C723.579 300.153 713.153 303.832 705.314 311.19C697.641 318.549 693.804 329.838 693.804 345.057V433.403C693.804 442.385 686.523 449.666 677.541 449.666C668.559 449.666 661.278 442.385 661.278 433.403V342.297C661.278 328.249 657.859 317.713 651.02 310.689C644.348 303.665 635.174 300.153 623.497 300.153C610.32 300.153 599.728 303.915 591.722 311.441C583.882 318.8 579.962 330.005 579.962 345.057V397.362V433.403C579.962 442.385 572.681 449.666 563.699 449.666C554.717 449.666 547.436 442.385 547.436 433.403V289.826C547.436 281.12 554.493 274.063 563.198 274.063C571.904 274.063 578.961 281.12 578.961 289.826V297.142C584.299 288.947 591.555 282.676 600.729 278.328C609.903 273.812 620.495 271.554 632.505 271.554C644.848 271.554 655.607 273.896 664.781 278.578C673.955 283.261 680.877 289.867 685.548 298.397C691.386 289.867 699.309 283.261 709.317 278.578C719.492 273.896 730.751 271.554 743.094 271.554Z" fill="#FFCC47"/>
<path d="M728.561 148.036L701.708 175.652V203.291C701.708 211.975 694.668 219.015 685.984 219.015C677.3 219.015 670.26 211.975 670.26 203.291V65.1643C670.26 56.48 677.3 49.4399 685.984 49.4399C694.668 49.4399 701.708 56.48 701.708 65.1643V136.408L781.6 53.3994C784.035 50.8695 787.395 49.4399 790.906 49.4399C802.215 49.4399 808.063 62.9441 800.326 71.1923L749.607 125.264L806.226 195.591C813.809 205.01 807.104 219.015 795.012 219.015C790.765 219.015 786.735 217.139 783.999 213.89L728.561 148.036Z" fill="#4775FF"/>
<path d="M229.697 49.4399C238.314 49.4399 245.3 56.4258 245.3 65.0433L245.3 150.458C245.3 173.714 239.333 191.398 227.399 203.511C215.625 215.462 198.691 221.437 176.597 221.437C164.662 221.437 154.018 219.58 144.664 215.866C135.471 211.99 128.133 206.741 122.65 200.119C117.005 206.741 109.587 211.99 100.394 215.866C91.3626 219.58 80.8797 221.437 68.9453 221.437C46.8506 221.437 29.836 215.381 17.9016 203.269C5.9672 191.156 0 173.553 0 150.458L0 65.1642C0 56.4799 7.04004 49.4399 15.7244 49.4399C24.4087 49.4399 31.4487 56.4799 31.4487 65.1642L31.4487 149.489C31.4487 164.832 34.5936 176.056 40.8834 183.162C47.3344 190.268 56.6884 193.821 68.9453 193.821C94.2656 193.821 106.926 179.044 106.926 149.489L106.926 65.1642C106.926 56.4799 113.966 49.4399 122.65 49.4399C131.334 49.4399 138.374 56.4799 138.374 65.1642L138.374 149.489C138.374 179.044 151.115 193.821 176.597 193.821C201.594 193.821 214.093 179.044 214.093 149.489L214.093 65.0433C214.093 56.4257 221.079 49.4399 229.697 49.4399Z" fill="#4775FF"/>
<path d="M368.776 221.437C351.519 221.437 335.956 217.723 322.086 210.294C308.217 202.703 297.33 192.287 289.428 179.044C281.525 165.639 277.574 150.7 277.574 134.227C277.574 117.754 281.525 102.896 289.428 89.6535C297.33 76.249 308.217 65.8323 322.086 58.4033C335.956 50.8128 351.519 47.0175 368.776 47.0175C386.032 47.0175 401.595 50.8128 415.465 58.4033C429.335 65.8323 440.221 76.1683 448.123 89.4112C456.026 102.654 459.977 117.593 459.977 134.227C459.977 150.862 456.026 165.801 448.123 179.044C440.221 192.287 429.335 202.703 415.465 210.294C401.595 217.723 386.032 221.437 368.776 221.437ZM368.776 193.821C380.065 193.821 390.225 191.318 399.257 186.311C408.288 181.143 415.384 174.037 420.545 164.993C425.706 155.788 428.286 145.532 428.286 134.227C428.286 122.922 425.706 112.748 420.545 103.704C415.384 94.4985 408.288 87.3925 399.257 82.386C390.225 77.218 380.065 74.634 368.776 74.634C357.486 74.634 347.326 77.218 338.294 82.386C329.263 87.3925 322.167 94.4985 317.006 103.704C311.845 112.748 309.265 122.922 309.265 134.227C309.265 145.532 311.845 155.788 317.006 164.993C322.167 174.037 329.263 181.143 338.294 186.311C347.326 191.318 357.486 193.821 368.776 193.821Z" fill="#4775FF"/>
<path d="M611.354 219.015C606.816 219.015 602.565 216.795 599.971 213.071L569.517 169.354C568.066 169.515 565.888 169.596 562.985 169.596H524.763V203.291C524.763 211.975 517.723 219.015 509.039 219.015C500.354 219.015 493.314 211.975 493.314 203.291V69.4399C493.314 58.3942 502.269 49.4399 513.314 49.4399L562.985 49.4399C577.662 49.4399 590.402 51.8624 601.208 56.7074C612.175 61.5524 620.561 68.4969 626.367 77.5409C632.173 86.5849 635.076 97.3247 635.076 109.76C635.076 122.519 631.931 133.501 625.641 142.706C619.513 151.912 610.642 158.775 599.031 163.297L622.725 197.193C629.153 206.389 622.574 219.015 611.354 219.015ZM603.385 109.76C603.385 98.9397 599.837 90.6224 592.741 84.8084C585.645 78.9944 575.242 76.0874 561.534 76.0874L524.763 76.0874V143.675H561.534C575.242 143.675 585.645 140.768 592.741 134.954C599.837 128.979 603.385 120.581 603.385 109.76Z" fill="#4775FF"/>
</svg>
