<svg width="2720" height="1108" viewBox="0 0 2720 1108" fill="none" xmlns="http://www.w3.org/2000/svg">
<path d="M1420.97 488.729C1403.91 488.729 1388.58 484.845 1374.97 477.077C1361.37 469.309 1350.68 458.656 1342.91 445.118C1335.35 431.357 1331.57 415.821 1331.57 398.51C1331.57 381.198 1335.35 365.773 1342.91 352.234C1350.68 338.474 1361.37 327.821 1374.97 320.275C1388.58 312.507 1403.91 308.623 1420.97 308.623C1438.03 308.623 1453.25 312.507 1466.64 320.275C1480.24 327.821 1490.82 338.474 1498.38 352.234C1506.15 365.773 1510.04 381.198 1510.04 398.51C1510.04 415.821 1506.15 431.357 1498.38 445.118C1490.82 458.656 1480.24 469.309 1466.64 477.077C1453.25 484.845 1438.03 488.729 1420.97 488.729ZM1420.97 460.765C1431.98 460.765 1441.8 458.212 1450.44 453.108C1459.3 447.781 1466.21 440.457 1471.17 431.135C1476.14 421.592 1478.62 410.716 1478.62 398.51C1478.62 386.303 1476.14 375.538 1471.17 366.217C1466.21 356.673 1459.3 349.349 1450.44 344.244C1441.8 339.14 1431.98 336.587 1420.97 336.587C1409.95 336.587 1400.02 339.14 1391.17 344.244C1382.53 349.349 1375.62 356.673 1370.44 366.217C1365.47 375.538 1362.99 386.303 1362.99 398.51C1362.99 410.716 1365.47 421.592 1370.44 431.135C1375.62 440.457 1382.53 447.781 1391.17 453.108C1400.02 458.212 1409.95 460.765 1420.97 460.765Z" fill="#4775FF"/>
<path d="M2275.15 488.729C2258.1 488.729 2242.76 484.845 2229.16 477.077C2215.56 469.309 2204.87 458.656 2197.09 445.118C2189.54 431.357 2185.76 415.821 2185.76 398.51C2185.76 381.198 2189.54 365.773 2197.09 352.234C2204.87 338.474 2215.56 327.821 2229.16 320.275C2242.76 312.507 2258.1 308.623 2275.15 308.623C2292.21 308.623 2307.44 312.507 2320.82 320.275C2334.43 327.821 2345.01 338.474 2352.57 352.234C2360.34 365.773 2364.23 381.198 2364.23 398.51C2364.23 415.821 2360.34 431.357 2352.57 445.118C2345.01 458.656 2334.43 469.309 2320.82 477.077C2307.44 484.845 2292.21 488.729 2275.15 488.729ZM2275.15 460.765C2286.17 460.765 2295.99 458.212 2304.63 453.108C2313.48 447.781 2320.39 440.457 2325.36 431.135C2330.33 421.592 2332.81 410.716 2332.81 398.51C2332.81 386.303 2330.33 375.538 2325.36 366.217C2320.39 356.673 2313.48 349.349 2304.63 344.244C2295.99 339.14 2286.17 336.587 2275.15 336.587C2264.14 336.587 2254.21 339.14 2245.36 344.244C2236.72 349.349 2229.81 356.673 2224.63 366.217C2219.66 375.538 2217.18 386.303 2217.18 398.51C2217.18 410.716 2219.66 421.592 2224.63 431.135C2229.81 440.457 2236.72 447.781 2245.36 453.108C2254.21 458.212 2264.14 460.765 2275.15 460.765Z" fill="#4775FF"/>
<path d="M1293.75 310.414C1300.6 310.414 1306.16 316.004 1306.16 322.899V407.696C1306.16 433.593 1299.49 453.515 1286.15 467.459C1272.81 481.404 1253.49 488.377 1228.2 488.377C1198.3 488.377 1177.6 477.863 1166.1 456.835C1160.12 467.459 1151.96 475.428 1141.61 480.74C1131.49 485.831 1118.84 488.377 1103.67 488.377C1078.14 488.377 1058.71 481.404 1045.37 467.459C1032.26 453.515 1025.71 433.593 1025.71 407.696V322.899C1025.71 316.004 1031.26 310.414 1038.11 310.414H1046.42C1053.27 310.414 1058.82 316.004 1058.82 322.899V404.708C1058.82 423.522 1062.39 437.467 1069.51 446.542C1076.64 455.396 1088.03 459.823 1103.67 459.823C1119.3 459.823 1130.8 455.285 1138.16 446.21C1145.75 437.135 1149.55 423.301 1149.55 404.708V322.899C1149.55 316.004 1155.1 310.414 1161.95 310.414H1170.26C1177.11 310.414 1182.66 316.004 1182.66 322.899V404.708C1182.66 423.301 1186.34 437.135 1193.7 446.21C1201.29 455.285 1212.9 459.823 1228.54 459.823C1243.95 459.823 1255.22 455.396 1262.35 446.542C1269.48 437.467 1273.04 423.522 1273.04 404.708V322.899C1273.04 316.004 1278.59 310.414 1285.44 310.414H1293.75Z" fill="#4775FF"/>
<path d="M1741.8 404.868L1703.18 439.353V475.663C1703.18 482.684 1697.53 488.376 1690.55 488.376H1682.1C1675.12 488.376 1669.47 482.684 1669.47 475.663V250.227C1669.47 243.205 1675.12 237.513 1682.1 237.513H1690.55C1697.53 237.513 1703.18 243.205 1703.18 250.227V398.444L1799.89 313.372C1802.96 310.675 1806.89 309.188 1810.96 309.188H1824.12C1831.74 309.188 1835.44 318.586 1829.88 323.843L1767.08 383.23L1841.76 474.511C1846.28 480.04 1842.37 488.376 1835.26 488.376H1817.54C1813.82 488.376 1810.29 486.722 1807.89 483.855L1741.8 404.868Z" fill="#4775FF"/>
<path d="M2023.3 264.008C2003.99 264.008 1994.33 274.405 1994.33 295.198V310.626H2038.25C2042.83 310.626 2046.54 314.42 2046.54 319.101V328.645C2046.54 333.326 2042.83 337.121 2038.25 337.121H1995.01V475.663C1995.01 482.685 1989.44 488.376 1982.58 488.376H1975.1C1968.24 488.376 1962.67 482.685 1962.67 475.663V294.863C1962.67 277.2 1967.84 263.226 1978.17 252.941C1988.49 242.656 2002.98 237.513 2021.62 237.513C2028.8 237.513 2035.54 238.408 2041.82 240.196C2045.72 241.305 2049.28 242.715 2052.48 244.426C2055.86 246.227 2056.98 250.442 2055.54 254.048L2052.25 262.312C2050.2 267.427 2043.98 269.135 2038.98 267.058C2034.08 265.025 2028.85 264.008 2023.3 264.008Z" fill="#4775FF"/>
<path d="M2113.19 339.459C2118.91 329.103 2127.37 321.224 2138.57 315.821C2146.7 311.901 2156.09 309.403 2166.74 308.327C2173.7 307.625 2179.38 313.447 2179.38 320.517V331.477C2179.38 335.54 2175.85 338.783 2171.83 338.783C2154 338.783 2139.94 344.074 2129.65 354.654C2119.59 365.01 2114.57 379.868 2114.57 399.228V475.576C2114.57 482.646 2108.9 488.376 2101.91 488.376H2094.3C2087.31 488.376 2081.64 482.646 2081.64 475.576V322.205C2081.64 315.136 2087.31 309.405 2094.3 309.405H2100.54C2107.53 309.405 2113.19 315.136 2113.19 322.205V339.459Z" fill="#4775FF"/>
<path d="M1571.42 339.459C1577.13 329.103 1585.59 321.224 1596.79 315.821C1604.92 311.901 1614.31 309.403 1624.97 308.327C1631.92 307.625 1637.6 313.447 1637.6 320.517V331.477C1637.6 335.54 1634.07 338.783 1630.06 338.783C1612.22 338.783 1598.16 344.074 1587.88 354.654C1577.82 365.01 1572.79 379.868 1572.79 399.228V475.576C1572.79 482.646 1567.12 488.376 1560.14 488.376H1552.52C1545.53 488.376 1539.87 482.646 1539.87 475.576V322.205C1539.87 315.136 1545.53 309.405 1552.52 309.405H1558.76C1565.75 309.405 1571.42 315.136 1571.42 322.205V339.459Z" fill="#4775FF"/>
<path d="M2625 308.27C2648.02 308.27 2666.2 314.778 2679.55 327.795C2693.13 340.812 2699.92 360.113 2699.92 385.699V475.615C2699.92 482.663 2694.22 488.376 2687.18 488.376H2679.51C2672.48 488.376 2666.78 482.663 2666.78 475.615V389.402C2666.78 372.12 2662.63 359.103 2654.35 350.351C2646.29 341.598 2634.67 337.221 2619.48 337.221C2602.67 337.221 2589.32 342.383 2579.43 352.707C2569.53 362.807 2564.58 377.395 2564.58 396.471V475.615C2564.58 482.663 2558.88 488.376 2551.84 488.376H2544.18C2537.14 488.376 2531.44 482.663 2531.44 475.615V389.402C2531.44 372.12 2527.29 359.103 2519.01 350.351C2510.95 341.598 2499.33 337.221 2484.14 337.221C2467.33 337.221 2453.99 342.383 2444.09 352.707C2434.19 362.807 2429.24 377.395 2429.24 396.471V475.615C2429.24 482.663 2423.54 488.376 2416.5 488.376H2408.84C2401.8 488.376 2396.1 482.663 2396.1 475.615V322.714C2396.1 315.666 2401.8 309.953 2408.84 309.953H2415.12C2422.16 309.953 2427.86 315.666 2427.86 322.714V336.548C2434.54 327.346 2443.28 320.389 2454.1 315.676C2464.92 310.738 2477.23 308.27 2491.04 308.27C2505.31 308.27 2517.97 311.075 2529.02 316.686C2540.07 322.297 2548.58 330.488 2554.57 341.261C2561.47 330.937 2571.03 322.858 2583.22 317.022C2595.65 311.187 2609.58 308.27 2625 308.27Z" fill="#4775FF"/>
<path d="M1100.6 1016.67C1091.82 1016.67 1083.6 1012.38 1078.59 1005.19L1003.41 897.418C999.919 897.806 994.683 898 987.703 898H895.79V989.833C895.79 1004.66 883.774 1016.67 868.952 1016.67H847.005C832.182 1016.67 820.166 1004.66 820.166 989.833V636.304C820.166 621.481 832.182 609.465 847.005 609.465H987.703C1022.99 609.465 1053.63 615.282 1079.62 626.917C1105.99 638.551 1126.15 655.227 1140.11 676.945C1154.08 698.663 1161.06 724.452 1161.06 754.314C1161.06 784.952 1153.49 811.323 1138.37 833.429C1123.63 855.534 1102.3 872.016 1074.38 882.875L1138.48 974.442C1150.93 992.23 1138.2 1016.67 1116.49 1016.67H1100.6ZM1084.85 754.314C1084.85 728.33 1076.32 708.358 1059.25 694.397C1042.19 680.435 1017.18 673.455 984.212 673.455H895.79V835.756H984.212C1017.18 835.756 1042.19 828.775 1059.25 814.814C1076.32 800.464 1084.85 780.298 1084.85 754.314Z" fill="#4775FF"/>
<path d="M1100.6 1016.67C1091.82 1016.67 1083.6 1012.38 1078.59 1005.19L1003.41 897.418C999.919 897.806 994.683 898 987.703 898H895.79V989.833C895.79 1004.66 883.774 1016.67 868.952 1016.67H847.005C832.182 1016.67 820.166 1004.66 820.166 989.833V636.304C820.166 621.481 832.182 609.465 847.005 609.465H987.703C1022.99 609.465 1053.63 615.282 1079.62 626.917C1105.99 638.551 1126.15 655.227 1140.11 676.945C1154.08 698.663 1161.06 724.452 1161.06 754.314C1161.06 784.952 1153.49 811.323 1138.37 833.429C1123.63 855.534 1102.3 872.016 1074.38 882.875L1138.48 974.442C1150.93 992.23 1138.2 1016.67 1116.49 1016.67H1100.6ZM1084.85 754.314C1084.85 728.33 1076.32 708.358 1059.25 694.397C1042.19 680.435 1017.18 673.455 984.212 673.455H895.79V835.756H984.212C1017.18 835.756 1042.19 828.775 1059.25 814.814C1076.32 800.464 1084.85 780.298 1084.85 754.314Z" fill="#4775FF"/>
<path d="M2566.77 609.465C2614.6 609.465 2651.93 623.451 2678.76 651.424C2705.59 679.008 2719 718.831 2719 770.891V996.341C2719 1011.19 2706.96 1023.23 2692.09 1023.23H2670.09C2655.23 1023.23 2643.18 1011.19 2643.18 996.341V773.805C2643.18 741.558 2634.62 717.277 2617.52 700.959C2600.8 684.253 2578.83 675.9 2551.61 675.9C2521.28 675.9 2496.97 684.447 2478.7 701.542C2460.81 718.636 2451.87 744.861 2451.87 780.215V996.341C2451.87 1011.19 2439.82 1023.23 2424.96 1023.23H2402.95C2388.09 1023.23 2376.04 1011.19 2376.04 996.341V773.805C2376.04 741.17 2368.07 716.694 2352.13 700.376C2336.58 684.059 2315.19 675.9 2287.97 675.9C2257.25 675.9 2232.56 684.642 2213.9 702.125C2195.62 719.219 2186.48 745.249 2186.48 780.215V996.341C2186.48 1011.19 2174.44 1023.23 2159.57 1023.23H2137.57C2122.71 1023.23 2110.66 1011.19 2110.66 996.341V642.179C2110.66 627.33 2122.71 615.293 2137.57 615.293H2157.24C2172.1 615.293 2184.15 627.33 2184.15 642.179V668.907C2196.59 649.87 2213.51 635.301 2234.9 625.2C2256.28 614.71 2280.97 609.465 2308.97 609.465C2337.74 609.465 2362.82 614.904 2384.21 625.782C2405.6 636.661 2421.73 652.007 2432.62 671.821C2446.23 652.007 2464.7 636.661 2488.03 625.782C2511.75 614.904 2538 609.465 2566.77 609.465Z" fill="#4775FF"/>
<path d="M1406.53 1027.7C1365.91 1027.7 1329.41 1018.68 1297.01 1000.64C1264.62 982.604 1239.17 957.866 1220.66 926.427C1202.67 894.473 1193.67 858.396 1193.67 818.196C1193.67 777.996 1202.67 742.177 1220.66 710.738C1239.17 678.784 1264.62 654.046 1297.01 636.523C1329.41 618.484 1365.91 609.465 1406.53 609.465C1447.15 609.465 1483.39 618.484 1515.27 636.523C1547.66 654.046 1572.86 678.784 1590.85 710.738C1609.36 742.177 1618.62 777.996 1618.62 818.196C1618.62 858.396 1609.36 894.473 1590.85 926.427C1572.86 957.866 1547.66 982.604 1515.27 1000.64C1483.39 1018.68 1447.15 1027.7 1406.53 1027.7ZM1406.53 962.762C1432.75 962.762 1456.14 956.835 1476.71 944.981C1497.79 932.612 1514.24 915.604 1526.07 893.958C1537.89 871.796 1543.81 846.543 1543.81 818.196C1543.81 789.85 1537.89 764.854 1526.07 743.208C1514.24 721.046 1497.79 704.038 1476.71 692.184C1456.14 680.33 1432.75 674.404 1406.53 674.404C1380.31 674.404 1356.66 680.33 1335.58 692.184C1315.01 704.038 1298.56 721.046 1286.22 743.208C1274.39 764.854 1268.48 789.85 1268.48 818.196C1268.48 846.543 1274.39 871.796 1286.22 893.958C1298.56 915.604 1315.01 932.612 1335.58 944.981C1356.66 956.835 1380.31 962.762 1406.53 962.762Z" fill="#4775FF"/>
<path d="M1860.25 602.918C1896.77 602.918 1928.62 610.105 1955.82 624.48C1983.01 638.855 2003.99 660.223 2018.76 688.584C2033.91 716.557 2041.49 750.552 2041.49 790.568V1004.68C2041.49 1011.31 2036.11 1016.68 2029.49 1016.68H1977.73C1971.1 1016.68 1965.73 1011.31 1965.73 1004.68V911.783H1753.6V1004.68C1753.6 1011.31 1748.23 1016.68 1741.6 1016.68H1691.01C1684.38 1016.68 1679.01 1011.31 1679.01 1004.68V790.568C1679.01 750.552 1686.39 716.557 1701.15 688.584C1716.3 660.223 1737.48 638.855 1764.67 624.48C1791.87 610.105 1823.73 602.918 1860.25 602.918ZM1965.73 848.262V783.575C1965.73 745.89 1956.4 717.528 1937.75 698.491C1919.1 679.066 1893.07 669.353 1859.66 669.353C1826.25 669.353 1800.22 679.066 1781.57 698.491C1762.92 717.528 1753.6 745.89 1753.6 783.575V848.262H1965.73Z" fill="#4775FF"/>
<path fill-rule="evenodd" clip-rule="evenodd" d="M215.178 331.086C203.241 331.852 193.157 332.499 185.723 332.499C138.421 332.499 104.634 302.935 104.634 261.546V154.464C104.634 150.108 98.4599 148.82 96.6077 152.762C87.1665 172.858 76.9952 191.5 66.6922 210.383L66.6922 210.383L66.692 210.383C44.0767 251.832 20.8271 294.443 3.27269 356.15C-17.9908 430.894 70.002 487.919 104.634 487.919H171.127C170.718 492.648 170.509 497.601 170.509 502.789C170.509 596.233 213.937 740.326 280.419 840.48C262.483 928.345 295.584 993.968 311.801 996.385C320.359 997.661 327.048 984.903 332.41 974.674C337.266 965.411 341.035 958.221 344.122 965.402C344.992 967.426 346.288 970.801 347.977 975.198C361.285 1009.84 398.956 1107.91 444.178 1107.91C486.692 1107.91 517.961 1025.55 533.654 984.215C536.772 976.002 539.276 969.408 541.13 965.402C544.743 957.597 548.333 964.549 553.139 973.855C557.9 983.073 563.854 994.601 572.204 996.385C589.606 1000.1 626.273 942.475 608.25 838.991C608.001 837.559 607.687 836.163 607.312 834.803C669.899 741.34 711.101 609.715 711.101 502.789C711.101 497.601 710.882 492.648 710.454 487.919H783.753C818.384 487.919 906.377 430.894 885.114 356.15C867.559 294.443 844.31 251.832 821.694 210.383C811.391 191.5 801.22 172.859 791.779 152.762C789.926 148.82 783.753 150.108 783.753 154.464V261.546C783.753 302.935 749.966 332.499 702.664 332.499C695.23 332.499 685.146 331.852 673.209 331.086C609.194 326.98 491.892 319.457 444.193 389.937C396.494 319.457 279.192 326.98 215.178 331.086ZM444.193 389.937C444.193 390.352 444.193 390.77 444.193 391.191C444.193 390.77 444.193 390.352 444.193 389.937Z" fill="#4775FF"/>
<ellipse cx="444.187" cy="864.645" rx="136.837" ry="89.5356" fill="#FFCC47"/>
<circle cx="366.47" cy="881.537" r="16.8935" fill="#4775FF"/>
<circle cx="521.899" cy="881.537" r="16.8935" fill="#4775FF"/>
<path d="M443.822 188.071C400.227 188.221 358.444 205.519 327.508 236.224C323.132 240.625 320.675 246.578 320.675 252.783C320.675 258.989 323.132 264.942 327.508 269.343C331.911 273.718 337.866 276.173 344.074 276.173C350.282 276.173 356.237 273.718 360.64 269.343C371.554 258.406 384.519 249.728 398.792 243.808C413.066 237.887 428.368 234.839 443.822 234.839C459.275 234.839 474.577 237.887 488.851 243.808C503.124 249.728 516.089 258.406 527.003 269.343C531.341 273.769 537.253 276.301 543.451 276.39C548.219 276.664 552.957 275.48 557.034 272.995C561.111 270.51 564.335 266.842 566.274 262.479C568.214 258.117 568.777 253.268 567.89 248.577C567.003 243.886 564.708 239.577 561.309 236.224C545.849 220.878 527.515 208.728 507.357 200.466C487.198 192.204 465.609 187.992 443.822 188.071ZM443.822 94.1155C375.302 94.2975 309.617 121.473 261.01 169.75C258.819 171.94 257.081 174.54 255.896 177.401C254.71 180.263 254.1 183.33 254.1 186.427C254.1 192.682 256.586 198.681 261.01 203.104C265.435 207.527 271.436 210.012 277.693 210.012C283.951 210.012 289.952 207.527 294.377 203.104C334.029 163.516 387.78 141.279 443.822 141.279C499.863 141.279 553.614 163.516 593.266 203.104C595.462 205.281 598.066 207.004 600.929 208.172C603.791 209.341 606.857 209.934 609.949 209.916C613.042 209.934 616.107 209.341 618.97 208.172C621.833 207.004 624.437 205.281 626.633 203.104C628.835 200.921 630.583 198.323 631.776 195.46C632.969 192.598 633.583 189.528 633.583 186.427C633.583 183.326 632.969 180.256 631.776 177.394C630.583 174.531 628.835 171.934 626.633 169.75C578.026 121.473 512.341 94.2975 443.822 94.1155ZM693.131 103.276C660.399 70.535 621.533 44.562 578.756 26.8414C535.978 9.12087 490.127 0 443.822 0C397.516 0 351.665 9.12087 308.887 26.8414C266.11 44.562 227.244 70.535 194.512 103.276C190.087 107.699 187.602 113.698 187.602 119.953C187.602 126.208 190.087 132.207 194.512 136.63C198.937 141.054 204.938 143.538 211.195 143.538C217.453 143.538 223.454 141.054 227.879 136.63C285.161 79.3994 362.834 47.2497 443.822 47.2497C524.809 47.2497 602.482 79.3994 659.764 136.63C661.949 138.832 664.548 140.579 667.411 141.772C670.274 142.965 673.346 143.578 676.448 143.578C679.55 143.578 682.621 142.965 685.484 141.772C688.348 140.579 690.947 138.832 693.131 136.63C695.333 134.447 697.081 131.849 698.274 128.987C699.467 126.124 700.081 123.054 700.081 119.953C700.081 116.852 699.467 113.782 698.274 110.92C697.081 108.058 695.333 105.46 693.131 103.276Z" fill="#4775FF"/>
</svg>
