<svg width="194" height="226" viewBox="0 0 194 226" fill="none" xmlns="http://www.w3.org/2000/svg">
<path d="M49.4275 172.904C47.5908 172.904 45.9401 172.487 44.4754 171.654C43.0107 170.822 41.8598 169.68 41.0228 168.229C40.2091 166.753 39.8022 165.088 39.8022 163.232C39.8022 161.377 40.2091 159.723 41.0228 158.272C41.8598 156.797 43.0107 155.655 44.4754 154.846C45.9401 154.013 47.5908 153.597 49.4275 153.597C51.2642 153.597 52.9032 154.013 54.3447 154.846C55.8094 155.655 56.9486 156.797 57.7624 158.272C58.5993 159.723 59.0178 161.377 59.0178 163.232C59.0178 165.088 58.5993 166.753 57.7624 168.229C56.9486 169.68 55.8094 170.822 54.3447 171.654C52.9032 172.487 51.2642 172.904 49.4275 172.904ZM49.4275 169.906C50.6132 169.906 51.671 169.632 52.601 169.085C53.5542 168.514 54.2982 167.729 54.8329 166.73C55.3677 165.707 55.635 164.541 55.635 163.232C55.635 161.924 55.3677 160.77 54.8329 159.771C54.2982 158.748 53.5542 157.963 52.601 157.415C51.671 156.868 50.6132 156.595 49.4275 156.595C48.2418 156.595 47.1723 156.868 46.2191 157.415C45.2891 157.963 44.5451 158.748 43.9871 159.771C43.4524 160.77 43.185 161.924 43.185 163.232C43.185 164.541 43.4524 165.707 43.9871 166.73C44.5451 167.729 45.2891 168.514 46.2191 169.085C47.1723 169.632 48.2418 169.906 49.4275 169.906Z" fill="#4775FF"/>
<path d="M141.397 172.904C139.561 172.904 137.91 172.487 136.445 171.654C134.98 170.822 133.83 169.68 132.993 168.229C132.179 166.753 131.772 165.088 131.772 163.232C131.772 161.377 132.179 159.723 132.993 158.272C133.83 156.797 134.98 155.655 136.445 154.846C137.91 154.013 139.561 153.597 141.397 153.597C143.234 153.597 144.873 154.013 146.314 154.846C147.779 155.655 148.918 156.797 149.732 158.272C150.569 159.723 150.988 161.377 150.988 163.232C150.988 165.088 150.569 166.753 149.732 168.229C148.918 169.68 147.779 170.822 146.314 171.654C144.873 172.487 143.234 172.904 141.397 172.904ZM141.397 169.906C142.583 169.906 143.641 169.632 144.571 169.085C145.524 168.514 146.268 167.729 146.803 166.73C147.337 165.707 147.605 164.541 147.605 163.232C147.605 161.924 147.337 160.77 146.803 159.771C146.268 158.748 145.524 157.963 144.571 157.415C143.641 156.868 142.583 156.595 141.397 156.595C140.211 156.595 139.142 156.868 138.189 157.415C137.259 157.963 136.515 158.748 135.957 159.771C135.422 160.77 135.155 161.924 135.155 163.232C135.155 164.541 135.422 165.707 135.957 166.73C136.515 167.729 137.259 168.514 138.189 169.085C139.142 169.632 140.211 169.906 141.397 169.906Z" fill="#4775FF"/>
<path d="M35.7307 153.789C36.4682 153.789 37.066 154.388 37.066 155.127V164.217C37.066 166.993 36.348 169.129 34.9118 170.623C33.4757 172.118 31.3958 172.866 28.6721 172.866C25.4532 172.866 23.2247 171.739 21.9867 169.485C21.3429 170.623 20.4639 171.478 19.3496 172.047C18.2601 172.593 16.8983 172.866 15.2641 172.866C12.5156 172.866 10.4233 172.118 8.98717 170.623C7.5758 169.129 6.87012 166.993 6.87012 164.217V155.127C6.87012 154.388 7.46799 153.789 8.2055 153.789H9.1003C9.83782 153.789 10.4357 154.388 10.4357 155.127V163.897C10.4357 165.914 10.8195 167.408 11.5871 168.381C12.3547 169.33 13.5803 169.805 15.2641 169.805C16.9478 169.805 18.1859 169.318 18.9782 168.346C19.7953 167.373 20.2039 165.89 20.2039 163.897V155.127C20.2039 154.388 20.8017 153.789 21.5392 153.789H22.434C23.1716 153.789 23.7694 154.388 23.7694 155.127V163.897C23.7694 165.89 24.1656 167.373 24.958 168.346C25.7751 169.318 27.0255 169.805 28.7092 169.805C30.3682 169.805 31.5815 169.33 32.3491 168.381C33.1167 167.408 33.5005 165.914 33.5005 163.897V155.127C33.5005 154.388 34.0983 153.789 34.8359 153.789H35.7307Z" fill="#4775FF"/>
<path d="M83.9705 163.914L79.8122 167.61V171.503C79.8122 172.255 79.2036 172.866 78.453 172.866H77.5423C76.7916 172.866 76.1831 172.255 76.1831 171.503V147.337C76.1831 146.584 76.7916 145.974 77.5423 145.974H78.453C79.2036 145.974 79.8122 146.584 79.8122 147.337V163.225L90.2251 154.106C90.5552 153.817 90.9788 153.657 91.4172 153.657H92.8336C93.6547 153.657 94.0524 154.665 93.4538 155.228L86.6923 161.594L94.7327 171.379C95.2197 171.972 94.7992 172.866 94.0333 172.866H92.1253C91.7246 172.866 91.3442 172.688 91.086 172.381L83.9705 163.914Z" fill="#4775FF"/>
<path d="M114.28 148.814C112.2 148.814 111.161 149.929 111.161 152.158V153.812H115.89C116.383 153.812 116.782 154.218 116.782 154.72V155.743C116.782 156.245 116.383 156.652 115.89 156.652H111.233V171.503C111.233 172.255 110.634 172.866 109.895 172.866H109.09C108.351 172.866 107.752 172.255 107.752 171.503V152.122C107.752 150.228 108.308 148.73 109.42 147.628C110.532 146.525 112.092 145.974 114.098 145.974C114.872 145.974 115.597 146.07 116.274 146.262C116.694 146.381 117.077 146.532 117.422 146.715C117.785 146.908 117.906 147.36 117.751 147.747L117.396 148.633C117.177 149.181 116.506 149.364 115.968 149.141C115.44 148.923 114.877 148.814 114.28 148.814Z" fill="#4775FF"/>
<path d="M123.959 156.902C124.575 155.792 125.485 154.948 126.692 154.368C127.567 153.948 128.578 153.68 129.725 153.565C130.474 153.49 131.085 154.114 131.085 154.872V156.047C131.085 156.482 130.705 156.83 130.273 156.83C128.353 156.83 126.839 157.397 125.732 158.531C124.649 159.641 124.107 161.234 124.107 163.309V171.493C124.107 172.251 123.497 172.866 122.745 172.866H121.925C121.172 172.866 120.562 172.251 120.562 171.493V155.053C120.562 154.295 121.172 153.681 121.925 153.681H122.597C123.349 153.681 123.959 154.295 123.959 155.053V156.902Z" fill="#4775FF"/>
<path d="M65.6263 156.902C66.2417 155.792 67.1525 154.948 68.3586 154.368C69.2337 153.948 70.2448 153.68 71.392 153.565C72.1406 153.49 72.7523 154.114 72.7523 154.872V156.047C72.7523 156.482 72.3725 156.83 71.94 156.83C70.0201 156.83 68.5063 157.397 67.3986 158.531C66.3155 159.641 65.774 161.234 65.774 163.309V171.493C65.774 172.251 65.1641 172.866 64.4117 172.866H63.5918C62.8394 172.866 62.2295 172.251 62.2295 171.493V155.053C62.2295 154.295 62.8394 153.681 63.5918 153.681H64.264C65.0164 153.681 65.6263 154.295 65.6263 155.053V156.902Z" fill="#4775FF"/>
<path d="M179.064 153.559C181.542 153.559 183.5 154.257 184.938 155.652C186.4 157.047 187.131 159.116 187.131 161.859V171.498C187.131 172.253 186.517 172.866 185.759 172.866H184.934C184.176 172.866 183.562 172.253 183.562 171.498V162.256C183.562 160.403 183.116 159.008 182.224 158.07C181.356 157.132 180.105 156.662 178.469 156.662C176.66 156.662 175.223 157.216 174.157 158.322C173.092 159.405 172.559 160.969 172.559 163.014V171.498C172.559 172.253 171.945 172.866 171.187 172.866H170.362C169.604 172.866 168.99 172.253 168.99 171.498V162.256C168.99 160.403 168.544 159.008 167.652 158.07C166.785 157.132 165.533 156.662 163.898 156.662C162.088 156.662 160.651 157.216 159.586 158.322C158.52 159.405 157.987 160.969 157.987 163.014V171.498C157.987 172.253 157.373 172.866 156.615 172.866H155.79C155.033 172.866 154.418 172.253 154.418 171.498V155.107C154.418 154.352 155.033 153.739 155.79 153.739H156.467C157.224 153.739 157.838 154.352 157.838 155.107V156.59C158.557 155.604 159.499 154.858 160.664 154.353C161.828 153.824 163.154 153.559 164.641 153.559C166.178 153.559 167.541 153.86 168.73 154.461C169.92 155.063 170.837 155.941 171.481 157.095C172.224 155.989 173.253 155.123 174.566 154.497C175.904 153.872 177.404 153.559 179.064 153.559Z" fill="#4775FF"/>
<path d="M28.6511 224.845C27.7547 224.845 26.9149 224.406 26.4021 223.671L18.7215 212.661C18.365 212.7 17.83 212.72 17.1168 212.72H7.72635V222.102C7.72635 223.617 6.4987 224.845 4.98431 224.845H2.74205C1.22766 224.845 0 223.617 0 222.102V185.983C0 184.469 1.22766 183.241 2.74205 183.241H17.1168C20.7225 183.241 23.8526 183.835 26.5073 185.024C29.2017 186.213 31.262 187.917 32.6884 190.135C34.1148 192.354 34.828 194.989 34.828 198.04C34.828 201.17 34.0554 203.865 32.5101 206.123C31.0045 208.381 28.8252 210.065 25.9724 211.175L32.5211 220.53C33.7932 222.347 32.4931 224.845 30.2747 224.845H28.6511ZM27.0422 198.04C27.0422 195.385 26.1705 193.345 24.4272 191.918C22.6838 190.492 20.1281 189.779 16.7602 189.779H7.72635V206.361H16.7602C20.1281 206.361 22.6838 205.648 24.4272 204.221C26.1705 202.755 27.0422 200.695 27.0422 198.04Z" fill="#4775FF"/>
<path d="M28.6511 224.845C27.7547 224.845 26.9149 224.406 26.4021 223.671L18.7215 212.661C18.365 212.7 17.83 212.72 17.1168 212.72H7.72635V222.102C7.72635 223.617 6.4987 224.845 4.98431 224.845H2.74205C1.22766 224.845 0 223.617 0 222.102V185.983C0 184.469 1.22766 183.241 2.74205 183.241H17.1168C20.7225 183.241 23.8526 183.835 26.5073 185.024C29.2017 186.213 31.262 187.917 32.6884 190.135C34.1148 192.354 34.828 194.989 34.828 198.04C34.828 201.17 34.0554 203.865 32.5101 206.123C31.0045 208.381 28.8252 210.065 25.9724 211.175L32.5211 220.53C33.7932 222.347 32.4931 224.845 30.2747 224.845H28.6511ZM27.0422 198.04C27.0422 195.385 26.1705 193.345 24.4272 191.918C22.6838 190.492 20.1281 189.779 16.7602 189.779H7.72635V206.361H16.7602C20.1281 206.361 22.6838 205.648 24.4272 204.221C26.1705 202.755 27.0422 200.695 27.0422 198.04Z" fill="#4775FF"/>
<path d="M178.447 183.241C183.333 183.241 187.147 184.67 189.888 187.528C192.629 190.346 194 194.415 194 199.734V222.767C194 224.284 192.769 225.514 191.25 225.514H189.002C187.484 225.514 186.253 224.284 186.253 222.767V200.031C186.253 196.737 185.379 194.256 183.631 192.589C181.923 190.882 179.678 190.029 176.897 190.029C173.799 190.029 171.316 190.902 169.448 192.648C167.621 194.395 166.707 197.074 166.707 200.686V222.767C166.707 224.284 165.476 225.514 163.958 225.514H161.71C160.191 225.514 158.96 224.284 158.96 222.767V200.031C158.96 196.697 158.146 194.196 156.517 192.529C154.928 190.862 152.743 190.029 149.962 190.029C146.824 190.029 144.301 190.922 142.394 192.708C140.527 194.454 139.593 197.114 139.593 200.686V222.767C139.593 224.284 138.363 225.514 136.844 225.514H134.596C133.078 225.514 131.847 224.284 131.847 222.767V186.583C131.847 185.066 133.078 183.836 134.596 183.836H136.606C138.124 183.836 139.355 185.066 139.355 186.583V189.314C140.626 187.369 142.355 185.881 144.54 184.849C146.724 183.777 149.247 183.241 152.108 183.241C155.047 183.241 157.61 183.797 159.795 184.908C161.98 186.02 163.628 187.587 164.741 189.612C166.131 187.587 168.018 186.02 170.402 184.908C172.825 183.797 175.507 183.241 178.447 183.241Z" fill="#4775FF"/>
<path d="M59.9074 225.971C55.7576 225.971 52.028 225.05 48.7186 223.207C45.4092 221.364 42.809 218.836 40.918 215.624C39.0794 212.36 38.1602 208.674 38.1602 204.567C38.1602 200.46 39.0794 196.8 40.918 193.588C42.809 190.323 45.4092 187.796 48.7186 186.006C52.028 184.163 55.7576 183.241 59.9074 183.241C64.0573 183.241 67.7606 184.163 71.0174 186.006C74.3268 187.796 76.9008 190.323 78.7393 193.588C80.6304 196.8 81.5759 200.46 81.5759 204.567C81.5759 208.674 80.6304 212.36 78.7393 215.624C76.9008 218.836 74.3268 221.364 71.0174 223.207C67.7606 225.05 64.0573 225.971 59.9074 225.971ZM59.9074 219.337C62.5864 219.337 64.9765 218.731 67.0777 217.52C69.2314 216.256 70.9124 214.519 72.1206 212.307C73.3288 210.043 73.9328 207.463 73.9328 204.567C73.9328 201.671 73.3288 199.117 72.1206 196.905C70.9124 194.641 69.2314 192.903 67.0777 191.692C64.9765 190.481 62.5864 189.876 59.9074 189.876C57.2284 189.876 54.8121 190.481 52.6583 191.692C50.5572 192.903 48.8762 194.641 47.6155 196.905C46.4073 199.117 45.8032 201.671 45.8032 204.567C45.8032 207.463 46.4073 210.043 47.6155 212.307C48.8762 214.519 50.5572 216.256 52.6583 217.52C54.8121 218.731 57.2284 219.337 59.9074 219.337Z" fill="#4775FF"/>
<path d="M106.262 182.572C109.994 182.572 113.248 183.307 116.027 184.775C118.806 186.244 120.949 188.427 122.457 191.325C124.005 194.182 124.779 197.656 124.779 201.744V220.975C124.779 223.113 123.047 224.845 120.909 224.845C118.772 224.845 117.039 223.113 117.039 220.975V214.128H95.3667V221.035C95.3667 223.139 93.6607 224.845 91.5562 224.845C89.4516 224.845 87.7456 223.139 87.7456 221.035V201.744C87.7456 197.656 88.4998 194.182 90.0081 191.325C91.5562 188.427 93.7194 186.244 96.4979 184.775C99.2765 183.307 102.531 182.572 106.262 182.572ZM117.039 207.638V201.03C117.039 197.179 116.087 194.282 114.181 192.337C112.276 190.352 109.617 189.36 106.203 189.36C102.789 189.36 100.13 190.352 98.2246 192.337C96.3193 194.282 95.3667 197.179 95.3667 201.03V207.638H117.039Z" fill="#4775FF"/>
<path fill-rule="evenodd" clip-rule="evenodd" d="M67.757 42.2687C66.2331 42.3665 64.9457 42.449 63.9966 42.449C57.9577 42.449 53.6443 38.6748 53.6443 33.3908C53.6443 29.8007 47.9057 28.4084 46.2645 31.6015C44.2378 35.5443 42.289 39.8966 40.7039 45.4684C37.9893 55.0107 49.223 62.2909 53.6443 62.2909H62.1339C62.0817 62.8946 62.055 63.527 62.055 64.1893C62.055 76.1187 67.599 94.5139 76.0863 107.3C73.796 118.518 78.0221 126.896 80.0924 127.205C81.1851 127.368 82.0389 125.739 82.7235 124.433C83.3435 123.25 83.8247 122.333 84.2187 123.249C84.3298 123.508 84.4953 123.939 84.7109 124.5C86.4099 128.923 91.2192 141.443 96.9925 141.443C102.42 141.443 106.412 130.928 108.415 125.651C108.814 124.603 109.133 123.761 109.37 123.249C109.831 122.253 110.29 123.14 110.903 124.329C111.511 125.505 112.271 126.977 113.337 127.205C115.559 127.68 120.24 120.322 117.939 107.111C117.907 106.928 117.867 106.75 117.819 106.577C125.81 94.645 131.07 77.8404 131.07 64.1893C131.07 63.527 131.042 62.8946 130.988 62.2909H140.345C144.766 62.2909 156 55.0107 153.285 45.4684C151.7 39.8966 149.751 35.5443 147.724 31.6015C146.083 28.4084 140.345 29.8007 140.345 33.3908C140.345 38.6748 136.031 42.449 129.992 42.449C129.043 42.449 127.756 42.3665 126.232 42.2687C118.059 41.7445 103.084 40.784 96.9945 49.7819C90.905 40.784 75.9295 41.7445 67.757 42.2687Z" fill="#4775FF"/>
<ellipse cx="96.9939" cy="110.386" rx="17.4695" ry="11.4306" fill="#FFCC47"/>
<circle cx="87.0718" cy="112.543" r="2.15672" fill="#4775FF"/>
<circle cx="106.915" cy="112.543" r="2.15672" fill="#4775FF"/>
<path d="M96.9474 24.0103C91.3819 24.0295 86.0476 26.2378 82.0982 30.1577C81.5394 30.7196 81.2258 31.4796 81.2258 32.2718C81.2258 33.064 81.5394 33.8241 82.0982 34.3859C82.6602 34.9444 83.4205 35.2579 84.213 35.2579C85.0056 35.2579 85.7659 34.9444 86.3279 34.3859C87.7212 32.9896 89.3764 31.8818 91.1987 31.1259C93.0209 30.37 94.9745 29.981 96.9474 29.981C98.9203 29.981 100.874 30.37 102.696 31.1259C104.518 31.8818 106.174 32.9896 107.567 34.3859C108.121 34.9509 108.875 35.2743 109.667 35.2855C110.275 35.3206 110.88 35.1694 111.401 34.8521C111.921 34.5349 112.333 34.0666 112.58 33.5097C112.828 32.9528 112.9 32.3337 112.787 31.7348C112.674 31.136 112.38 30.5859 111.947 30.1577C109.973 28.1986 107.632 26.6474 105.059 25.5927C102.485 24.5379 99.7288 24.0002 96.9474 24.0103ZM96.9474 12.0153C88.1998 12.0386 79.814 15.508 73.6086 21.6713C73.3289 21.9509 73.107 22.2828 72.9557 22.6481C72.8043 23.0134 72.7264 23.405 72.7264 23.8004C72.7264 24.599 73.0437 25.3648 73.6086 25.9295C74.1735 26.4942 74.9396 26.8114 75.7385 26.8114C76.5373 26.8114 77.3035 26.4942 77.8684 25.9295C82.9306 20.8754 89.7927 18.0366 96.9474 18.0366C104.102 18.0366 110.964 20.8754 116.026 25.9295C116.307 26.2074 116.639 26.4273 117.005 26.5765C117.37 26.7258 117.761 26.8014 118.156 26.7991C118.551 26.8014 118.942 26.7258 119.308 26.5765C119.673 26.4273 120.006 26.2074 120.286 25.9295C120.567 25.6507 120.79 25.319 120.943 24.9536C121.095 24.5882 121.173 24.1963 121.173 23.8004C121.173 23.4045 121.095 23.0126 120.943 22.6471C120.79 22.2817 120.567 21.9501 120.286 21.6713C114.081 15.508 105.695 12.0386 96.9474 12.0153ZM128.776 13.1848C124.597 9.00491 119.635 5.68905 114.174 3.42674C108.713 1.16442 102.859 0 96.9474 0C91.0358 0 85.1821 1.16442 79.7209 3.42674C74.2596 5.68905 69.2978 9.00491 65.119 13.1848C64.5542 13.7495 64.2368 14.5154 64.2368 15.314C64.2368 16.1125 64.5542 16.8784 65.119 17.4431C65.6839 18.0077 66.4501 18.325 67.2489 18.325C68.0478 18.325 68.8139 18.0077 69.3788 17.4431C76.6918 10.1366 86.608 6.03218 96.9474 6.03218C107.287 6.03218 117.203 10.1366 124.516 17.4431C124.795 17.7241 125.127 17.9472 125.492 18.0995C125.858 18.2517 126.25 18.3301 126.646 18.3301C127.042 18.3301 127.434 18.2517 127.799 18.0995C128.165 17.9472 128.497 17.7241 128.776 17.4431C129.057 17.1643 129.28 16.8326 129.432 16.4672C129.585 16.1018 129.663 15.7098 129.663 15.314C129.663 14.9181 129.585 14.5261 129.432 14.1607C129.28 13.7953 129.057 13.4636 128.776 13.1848Z" fill="#4775FF"/>
</svg>
