<svg width="28" height="29" viewBox="0 0 28 29" fill="none" xmlns="http://www.w3.org/2000/svg">
<path fill-rule="evenodd" clip-rule="evenodd" d="M13.9992 0.28418C14.7559 0.28418 17.5979 8.90462 18.3399 9.47231C19.0819 10.04 27.7627 10.2094 27.9937 10.9682C28.2317 11.7291 21.301 17.2248 21.021 18.1445C20.7347 19.0594 23.2624 27.7828 22.6527 28.2539C22.0374 28.725 14.9176 23.5009 13.9999 23.5009C13.0822 23.5009 5.96307 28.725 5.34776 28.2539C4.73805 27.7821 7.26508 19.0587 6.97808 18.1445C6.69878 17.2255 -0.232012 11.7291 0.00599104 10.9682C0.236994 10.2094 8.9178 10.04 9.65981 9.47231C10.4018 8.90462 13.2362 0.28418 13.9992 0.28418Z" fill="#FFFFFF"/>
</svg>
