<svg width="12" height="12" viewBox="0 0 12 12" fill="none" xmlns="http://www.w3.org/2000/svg">
<path d="M11.25 12H3C2.78906 12 2.61133 11.9278 2.4668 11.7834C2.32227 11.639 2.25 11.4615 2.25 11.2507V10.3024C1.58594 10.0605 1.04492 9.65073 0.626953 9.07317C0.208984 8.49561 0 7.8439 0 7.11805C0 6.3922 0.208984 5.74049 0.626953 5.16293C1.04492 4.58537 1.58594 4.17951 2.25 3.94537V0.760976C2.25 0.558049 2.32227 0.382439 2.4668 0.234146C2.61133 0.0858536 2.78906 0.0117073 3 0.0117073H7.5V4.13268C7.5 4.23415 7.53711 4.32195 7.61133 4.3961C7.68555 4.47024 7.77344 4.50732 7.875 4.50732H11.9883L12 4.51902V11.2507C12 11.4537 11.9258 11.6293 11.7773 11.7776C11.6289 11.9259 11.4531 12 11.25 12ZM7.40625 10.1854L5.63672 8.42927C5.87891 8.01561 6 7.57854 6 7.11805C6 6.4 5.74414 5.78341 5.23242 5.26829C4.7207 4.75317 4.10156 4.49561 3.375 4.49561C2.64844 4.49561 2.0293 4.75122 1.51758 5.26244C1.00586 5.77366 0.75 6.3922 0.75 7.11805C0.75 7.8439 1.00586 8.46244 1.51758 8.97366C2.0293 9.48488 2.64844 9.74049 3.375 9.74049C3.82812 9.74049 4.26562 9.61951 4.6875 9.37756L6.44531 11.1454C6.50781 11.2078 6.58594 11.239 6.67969 11.239C6.77344 11.239 6.85547 11.2078 6.92578 11.1454L7.40625 10.6654C7.46875 10.6029 7.5 10.5249 7.5 10.4312C7.5 10.3376 7.46875 10.2556 7.40625 10.1854ZM3.375 8.99122C2.85938 8.99122 2.41797 8.80976 2.05078 8.44683C1.68359 8.0839 1.5 7.64293 1.5 7.1239C1.5 6.60488 1.68359 6.16195 2.05078 5.79512C2.41797 5.42829 2.85938 5.24488 3.375 5.24488C3.89062 5.24488 4.33203 5.42829 4.69922 5.79512C5.06641 6.16195 5.25 6.60488 5.25 7.1239C5.25 7.64293 5.06641 8.0839 4.69922 8.44683C4.33203 8.80976 3.89062 8.99122 3.375 8.99122ZM8.25 0C8.45312 0.00780488 8.625 0.0819512 8.76562 0.222439L11.7773 3.23122C11.9258 3.37951 11.9961 3.55512 11.9883 3.75805H8.25V0Z" fill="#4775FF"/>
</svg>
