<svg width="12" height="12" viewBox="0 0 12 12" fill="none" xmlns="http://www.w3.org/2000/svg">
<circle cx="6" cy="6" r="6" fill="#4775FF"/>
<path d="M9.08313 3.60721C9.27383 3.4165 9.27383 3.1073 9.08313 2.9166C8.89242 2.72589 8.58322 2.72589 8.39251 2.9166L5.99986 5.30925L3.60721 2.91659C3.4165 2.72589 3.1073 2.72589 2.9166 2.9166C2.72589 3.1073 2.72589 3.4165 2.9166 3.60721L5.30925 5.99986L2.91659 8.39251C2.72589 8.58322 2.72589 8.89242 2.9166 9.08313C3.1073 9.27383 3.4165 9.27383 3.60721 9.08313L5.99986 6.69047L8.39251 9.08313C8.58322 9.27383 8.89242 9.27383 9.08313 9.08313C9.27383 8.89242 9.27383 8.58322 9.08313 8.39251L6.69047 5.99986L9.08313 3.60721Z" fill="white"/>
</svg>
