<svg width="8" height="8" viewBox="0 0 8 8" fill="none" xmlns="http://www.w3.org/2000/svg">
<path d="M7.08313 1.60721C7.27383 1.4165 7.27383 1.1073 7.08313 0.916595C6.89242 0.725888 6.58322 0.725888 6.39251 0.916595L3.99986 3.30925L1.60721 0.916595C1.4165 0.725888 1.1073 0.725888 0.916595 0.916595C0.725888 1.1073 0.725888 1.4165 0.916595 1.60721L3.30925 3.99986L0.916595 6.39251C0.725888 6.58322 0.725888 6.89242 0.916595 7.08313C1.1073 7.27383 1.4165 7.27383 1.60721 7.08313L3.99986 4.69047L6.39251 7.08313C6.58322 7.27383 6.89242 7.27383 7.08313 7.08313C7.27383 6.89242 7.27383 6.58322 7.08313 6.39251L4.69047 3.99986L7.08313 1.60721Z" fill="white"/>
</svg>
