<svg width="3" height="13" viewBox="0 0 3 13" fill="none" xmlns="http://www.w3.org/2000/svg">
<path fill-rule="evenodd" clip-rule="evenodd" d="M4.47035e-08 1.5C4.47035e-08 1.89782 0.158035 2.27936 0.43934 2.56066C0.720644 2.84196 1.10218 3 1.5 3C1.89782 3 2.27936 2.84196 2.56066 2.56066C2.84196 2.27936 3 1.89782 3 1.5C3 1.10218 2.84196 0.720644 2.56066 0.43934C2.27936 0.158035 1.89782 0 1.5 0C1.10218 0 0.720644 0.158035 0.43934 0.43934C0.158035 0.720644 4.47035e-08 1.10218 4.47035e-08 1.5ZM4.47035e-08 6.5C4.47035e-08 6.89782 0.158035 7.27936 0.43934 7.56066C0.720644 7.84196 1.10218 8 1.5 8C1.89782 8 2.27936 7.84196 2.56066 7.56066C2.84196 7.27936 3 6.89782 3 6.5C3 6.10218 2.84196 5.72064 2.56066 5.43934C2.27936 5.15804 1.89782 5 1.5 5C1.10218 5 0.720644 5.15804 0.43934 5.43934C0.158035 5.72064 4.47035e-08 6.10218 4.47035e-08 6.5ZM1.5 13C1.30302 13 1.10796 12.9612 0.925975 12.8858C0.743986 12.8104 0.578628 12.6999 0.43934 12.5607C0.300052 12.4214 0.189563 12.256 0.114181 12.074C0.0387986 11.892 0 11.697 0 11.5C0 11.303 0.0387986 11.108 0.114181 10.926C0.189563 10.744 0.300052 10.5786 0.43934 10.4393C0.578628 10.3001 0.743986 10.1896 0.925975 10.1142C1.10796 10.0388 1.30302 10 1.5 10C1.89782 10 2.27936 10.158 2.56066 10.4393C2.84196 10.7206 3 11.1022 3 11.5C3 11.8978 2.84196 12.2794 2.56066 12.5607C2.27936 12.842 1.89782 13 1.5 13Z" fill="#4775FF"/>
</svg>
