<svg width="43" height="43" viewBox="0 0 43 43" fill="none" xmlns="http://www.w3.org/2000/svg">
<path d="M40.7465 1.06163L41.9258 2.22823C43.5509 3.83775 43.305 6.69098 41.3721 8.60104L17.0522 32.6588L9.1727 35.51C8.18328 35.8699 7.21983 35.4032 7.02395 34.4719C6.95775 34.1341 6.98891 33.7847 7.11389 33.4635L10.0522 25.6018L34.3042 1.60934C36.2371 -0.300726 39.1214 -0.545911 40.7465 1.06361V1.06163ZM15.9908 3.45415C16.2533 3.45415 16.5132 3.5053 16.7557 3.60466C16.9982 3.70403 17.2186 3.84968 17.4042 4.03329C17.5898 4.2169 17.737 4.43487 17.8375 4.67477C17.9379 4.91466 17.9896 5.17178 17.9896 5.43144C17.9896 5.69111 17.9379 5.94823 17.8375 6.18812C17.737 6.42802 17.5898 6.64599 17.4042 6.8296C17.2186 7.01321 16.9982 7.15886 16.7557 7.25822C16.5132 7.35759 16.2533 7.40874 15.9908 7.40874H7.99538C6.93513 7.40874 5.9183 7.82538 5.16859 8.56701C4.41888 9.30864 3.99769 10.3145 3.99769 11.3633V35.0908C3.99769 36.1397 4.41888 37.1455 5.16859 37.8871C5.9183 38.6288 6.93513 39.0454 7.99538 39.0454H31.9815C33.0418 39.0454 34.0586 38.6288 34.8083 37.8871C35.5581 37.1455 35.9792 36.1397 35.9792 35.0908V27.1817C35.9792 26.6573 36.1898 26.1543 36.5647 25.7835C36.9395 25.4127 37.4479 25.2044 37.9781 25.2044C38.5082 25.2044 39.0166 25.4127 39.3915 25.7835C39.7663 26.1543 39.9769 26.6573 39.9769 27.1817V35.0908C39.9769 37.1885 39.1346 39.2002 37.6351 40.6835C36.1357 42.1667 34.102 43 31.9815 43H7.99538C5.87488 43 3.84122 42.1667 2.34179 40.6835C0.842369 39.2002 0 37.1885 0 35.0908V11.3633C0 9.26568 0.842369 7.25395 2.34179 5.77069C3.84122 4.28744 5.87488 3.45415 7.99538 3.45415H15.9908Z" fill="#4775FF"/>
</svg>
