<svg width="20" height="20" viewBox="0 0 20 20" fill="none" xmlns="http://www.w3.org/2000/svg">
<path d="M18.75 20H5C4.64844 20 4.35221 19.8797 4.11133 19.639C3.87044 19.3984 3.75 19.1024 3.75 18.7512V17.1707C2.64323 16.7675 1.74154 16.0846 1.04492 15.122C0.348307 14.1593 0 13.0732 0 11.8634C0 10.6537 0.348307 9.56748 1.04492 8.60488C1.74154 7.64228 2.64323 6.96585 3.75 6.57561V1.26829C3.75 0.930081 3.87044 0.637398 4.11133 0.390244C4.35221 0.143089 4.64844 0.0195122 5 0.0195122H12.5V6.8878C12.5 7.05691 12.5618 7.20325 12.6855 7.32683C12.8092 7.45041 12.9557 7.5122 13.125 7.5122H19.9805L20 7.53171V18.7512C20 19.0894 19.8763 19.3821 19.6289 19.6293C19.3815 19.8764 19.0885 20 18.75 20ZM12.3438 16.9756L9.39453 14.0488C9.79818 13.3593 10 12.6309 10 11.8634C10 10.6667 9.57357 9.63902 8.7207 8.78049C7.86784 7.92195 6.83594 7.49268 5.625 7.49268C4.41406 7.49268 3.38216 7.9187 2.5293 8.77073C1.67643 9.62276 1.25 10.6537 1.25 11.8634C1.25 13.0732 1.67643 14.1041 2.5293 14.9561C3.38216 15.8081 4.41406 16.2341 5.625 16.2341C6.38021 16.2341 7.10938 16.0325 7.8125 15.6293L10.7422 18.5756C10.8464 18.6797 10.9766 18.7317 11.1328 18.7317C11.2891 18.7317 11.4258 18.6797 11.543 18.5756L12.3438 17.7756C12.4479 17.6715 12.5 17.5415 12.5 17.3854C12.5 17.2293 12.4479 17.0927 12.3438 16.9756ZM5.625 14.9854C4.76562 14.9854 4.02995 14.6829 3.41797 14.078C2.80599 13.4732 2.5 12.7382 2.5 11.8732C2.5 11.0081 2.80599 10.2699 3.41797 9.65854C4.02995 9.04715 4.76562 8.74146 5.625 8.74146C6.48438 8.74146 7.22005 9.04715 7.83203 9.65854C8.44401 10.2699 8.75 11.0081 8.75 11.8732C8.75 12.7382 8.44401 13.4732 7.83203 14.078C7.22005 14.6829 6.48438 14.9854 5.625 14.9854ZM13.75 0C14.0885 0.0130081 14.375 0.136585 14.6094 0.370732L19.6289 5.38537C19.8763 5.63252 19.9935 5.9252 19.9805 6.26341H13.75V0Z" fill="#4775FF"/>
</svg>
