<svg width="48" height="48" viewBox="0 0 1304 1304" fill="none" xmlns="http://www.w3.org/2000/svg">
<path d="M1304 652C1304 1012.09 1012.09 1304 652 1304C291.91 1304 0 1012.09 0 652C0 291.91 291.91 0 652 0C1012.09 0 1304 291.91 1304 652Z" fill="#4775FF"/>
<path d="M1229.92 652C1229.92 971.177 971.177 1229.92 652 1229.92C332.822 1229.92 74.0781 971.177 74.0781 652C74.0781 332.823 332.822 74.0786 652 74.0786C971.177 74.0786 1229.92 332.823 1229.92 652Z" fill="white"/>
<path d="M436.312 471.851C475.852 471.851 605.063 449.963 652.37 519.864C652.369 551.85 652.37 601.768 652.37 601.768H368.529C339.58 601.768 266.026 554.101 283.8 491.621C304.772 417.902 335.467 376.787 360.442 324.516C362.32 320.585 368.529 321.892 368.529 326.248V412.541C368.529 447.139 396.772 471.851 436.312 471.851Z" fill="#4775FF"/>
<path d="M868.428 471.851C828.888 471.851 699.677 449.963 652.37 519.864C652.371 551.85 652.37 601.768 652.37 601.768H936.211C965.16 601.768 1038.71 554.101 1020.94 491.621C999.968 417.902 969.273 376.787 944.298 324.516C942.42 320.585 936.211 321.892 936.211 326.248V412.541C936.211 447.139 907.969 471.851 868.428 471.851Z" fill="#4775FF"/>
<path d="M733.398 1000.9C724.046 1021.1 694.954 1120.03 652.355 1120.03C609.756 1120.03 575.173 1015.92 568.717 1000.9C563.287 988.269 555.332 1028.83 541.699 1026.8C528.067 1024.77 500.162 969.305 515.725 895.233C527.152 840.845 652.355 849.651 652.355 849.651C652.355 849.651 779.761 839.291 789.504 895.233C804.57 981.736 773.919 1029.91 759.373 1026.8C745.346 1023.8 739.41 987.915 733.398 1000.9Z" fill="#4775FF"/>
<path d="M875.482 614.198C875.482 771.062 769.398 991.52 646.783 991.52C524.167 991.52 423.595 744.212 423.595 614.198C423.595 503.017 538.393 520.927 646.783 520.927C755.172 520.927 875.482 503.017 875.482 614.198Z" fill="#4775FF"/>
<path d="M766.75 916.677C766.75 958.012 715.539 991.521 652.366 991.521C589.194 991.521 537.982 958.012 537.982 916.677C537.982 875.342 589.194 841.833 652.366 841.833C715.539 841.833 766.75 875.342 766.75 916.677Z" fill="#FFCC47"/>
<path d="M601.522 930.798C601.522 938.597 595.2 944.919 587.401 944.919C579.602 944.919 573.279 938.597 573.279 930.798C573.279 922.999 579.602 916.677 587.401 916.677C595.2 916.677 601.522 922.999 601.522 930.798Z" fill="#4775FF"/>
<path d="M731.446 930.798C731.446 938.597 725.123 944.919 717.324 944.919C709.525 944.919 703.203 938.597 703.203 930.798C703.203 922.999 709.525 916.677 717.324 916.677C725.123 916.677 731.446 922.999 731.446 930.798Z" fill="#4775FF"/>
<path d="M651.984 351.042C615.565 351.167 580.659 365.619 554.815 391.272C551.159 394.949 549.107 399.923 549.107 405.107C549.107 410.292 551.159 415.266 554.815 418.943C558.493 422.598 563.468 424.649 568.654 424.649C573.84 424.649 578.815 422.598 582.493 418.943C591.611 409.805 602.442 402.555 614.366 397.608C626.29 392.661 639.074 390.115 651.984 390.115C664.894 390.115 677.678 392.661 689.602 397.608C701.526 402.555 712.357 409.805 721.475 418.943C725.099 422.64 730.038 424.756 735.216 424.83C739.198 425.059 743.157 424.07 746.563 421.993C749.969 419.917 752.662 416.853 754.282 413.208C755.902 409.563 756.373 405.512 755.632 401.593C754.891 397.674 752.974 394.074 750.134 391.272C737.218 378.451 721.903 368.3 705.062 361.397C688.221 354.494 670.185 350.975 651.984 351.042ZM651.984 272.543C594.742 272.695 539.868 295.4 499.262 335.734C497.431 337.564 495.98 339.736 494.989 342.127C493.999 344.518 493.489 347.08 493.489 349.668C493.489 354.894 495.565 359.906 499.262 363.601C502.958 367.297 507.972 369.373 513.199 369.373C518.427 369.373 523.44 367.297 527.137 363.601C560.262 330.526 605.166 311.948 651.984 311.948C698.802 311.948 743.706 330.526 776.831 363.601C778.666 365.42 780.841 366.859 783.233 367.836C785.624 368.812 788.185 369.307 790.769 369.292C793.352 369.307 795.913 368.812 798.305 367.836C800.697 366.859 802.872 365.42 804.706 363.601C806.546 361.777 808.006 359.606 809.003 357.215C810 354.824 810.513 352.258 810.513 349.668C810.513 347.077 810 344.512 809.003 342.121C808.006 339.729 806.546 337.559 804.706 335.734C764.1 295.4 709.226 272.695 651.984 272.543ZM860.259 280.197C832.914 252.842 800.446 231.142 764.709 216.337C728.972 201.532 690.668 193.912 651.984 193.912C613.3 193.912 574.995 201.532 539.259 216.337C503.522 231.142 471.053 252.842 443.709 280.197C440.012 283.892 437.936 288.904 437.936 294.13C437.936 299.356 440.012 304.368 443.709 308.064C447.405 311.759 452.418 313.835 457.646 313.835C462.873 313.835 467.887 311.759 471.583 308.064C519.437 260.248 584.326 233.388 651.984 233.388C719.642 233.388 784.531 260.248 832.385 308.064C834.209 309.903 836.381 311.363 838.773 312.359C841.165 313.356 843.731 313.869 846.322 313.869C848.913 313.869 851.479 313.356 853.871 312.359C856.263 311.363 858.434 309.903 860.259 308.064C862.099 306.239 863.56 304.069 864.556 301.677C865.553 299.286 866.066 296.721 866.066 294.13C866.066 291.54 865.553 288.975 864.556 286.583C863.56 284.192 862.099 282.021 860.259 280.197Z" fill="#4775FF"/>
</svg>