<svg width="16" height="16" viewBox="0 0 16 16" fill="none" xmlns="http://www.w3.org/2000/svg">
<path fill-rule="evenodd" clip-rule="evenodd" d="M13.5585 2.332C10.4535 -0.772996 5.4225 -0.777996 2.3235 2.321C-0.777498 5.423 -0.774498 10.452 2.3325 13.557C5.4375 16.662 10.4695 16.666 13.5675 13.567C16.6675 10.468 16.6645 5.437 13.5585 2.332ZM9.5555 11.286L7.8675 9.598L6.1795 11.286C5.4905 11.975 4.9725 12.575 4.1505 11.754C3.3305 10.933 3.9275 10.415 4.6195 9.725L6.3075 8.038L4.6195 6.35C3.9295 5.661 3.3305 5.143 4.1505 4.321C4.9725 3.501 5.4905 4.1 6.1795 4.79L7.8675 6.476L9.5555 4.79C10.2455 4.101 10.7605 3.5 11.5825 4.321C12.4045 5.143 11.8055 5.661 11.1155 6.35L9.4275 8.037L11.1155 9.724C11.8045 10.415 12.4045 10.933 11.5825 11.754C10.7625 12.575 10.2455 11.975 9.5555 11.286Z" fill="#EF0909"/>
</svg>
