<svg width="21" height="22" viewBox="0 0 21 22" fill="none" xmlns="http://www.w3.org/2000/svg">
<path d="M18.5282 12.0771C18.5732 11.7333 18.5957 11.3781 18.5957 11C18.5957 10.6333 18.5732 10.2667 18.5169 9.92292L20.7995 8.1125C20.8978 8.02988 20.965 7.91507 20.9896 7.78762C21.0142 7.66017 20.9947 7.52797 20.9344 7.41354L18.7756 3.60938C18.712 3.49429 18.6105 3.40585 18.4891 3.35971C18.3677 3.31357 18.2341 3.31272 18.1122 3.35729L15.4249 4.45729C14.8627 4.02188 14.2667 3.65521 13.6033 3.38021L13.1986 0.469795C13.1786 0.338631 13.1132 0.219095 13.0142 0.132893C12.9152 0.0466905 12.7891 -0.000460057 12.6588 3.3841e-06H8.34116C8.0713 3.3841e-06 7.85767 0.194795 7.81269 0.469795L7.40791 3.38021C6.74452 3.65521 6.13734 4.03334 5.58639 4.45729L2.89908 3.35729C2.65171 3.26563 2.37061 3.35729 2.23569 3.60938L0.0880886 7.41354C-0.0468389 7.65417 -0.0018632 7.95208 0.223016 8.1125L2.50554 9.92292C2.44932 10.2667 2.40435 10.6448 2.40435 11C2.40435 11.3552 2.42683 11.7333 2.48305 12.0771L0.200528 13.8875C0.10217 13.9701 0.0349649 14.0849 0.0103619 14.2124C-0.0142412 14.3398 0.00528048 14.472 0.0656007 14.5865L2.22444 18.3906C2.35937 18.6427 2.64047 18.7229 2.88784 18.6427L5.57514 17.5427C6.13734 17.9781 6.73327 18.3448 7.39667 18.6198L7.80145 21.5302C7.85767 21.8052 8.0713 22 8.34116 22H12.6588C12.9287 22 13.1536 21.8052 13.1873 21.5302L13.5921 18.6198C14.2555 18.3448 14.8627 17.9781 15.4136 17.5427L18.1009 18.6427C18.3483 18.7344 18.6294 18.6427 18.7643 18.3906L20.9232 14.5865C21.0581 14.3344 21.0019 14.0479 20.7882 13.8875L18.5282 12.0771ZM10.5 15.125C8.27369 15.125 6.45217 13.2688 6.45217 11C6.45217 8.73125 8.27369 6.875 10.5 6.875C12.7263 6.875 14.5478 8.73125 14.5478 11C14.5478 13.2688 12.7263 15.125 10.5 15.125Z" fill="white"/>
</svg>
