<svg width="91" height="96" viewBox="0 0 91 96" fill="none" xmlns="http://www.w3.org/2000/svg">
<path d="M55.0942 81.7699C53.9683 84.1785 50.4657 95.9734 45.3369 95.9734C40.2081 95.9734 36.0445 83.5609 35.2671 81.7699C34.6135 80.2637 33.6556 85.1002 32.0143 84.8579C30.3731 84.6156 27.0134 78.0024 28.8871 69.1707C30.2629 62.6858 45.3369 63.7357 45.3369 63.7357C45.3369 63.7357 60.6762 62.5005 61.8492 69.1707C63.6631 79.4847 59.9728 85.2284 58.2215 84.8579C56.5327 84.5005 55.818 80.2214 55.0942 81.7699Z" fill="#4775FF"/>
<path d="M72.3846 36.0341C72.3846 54.6281 59.5036 80.7603 44.6153 80.7603C29.727 80.7603 17.5153 51.4454 17.5153 36.0341C17.5153 22.8551 31.4544 24.9781 44.6153 24.9781C57.7763 24.9781 72.3846 22.8551 72.3846 36.0341Z" fill="#4775FF"/>
<ellipse cx="45.3364" cy="71.822" rx="13.9105" ry="8.93771" fill="#FFCC47"/>
<ellipse cx="37.4151" cy="73.534" rx="1.73882" ry="1.52131" fill="#4775FF"/>
<ellipse cx="53.2576" cy="73.534" rx="1.73882" ry="1.52131" fill="#4775FF"/>
<path d="M19.2546 18.8423C24.0277 18.8423 39.6256 16.2279 45.3364 24.5773C45.3362 28.3978 45.3364 34.3604 45.3364 34.3604H11.072C7.57734 34.3604 -1.30187 28.6667 0.843792 21.2037C3.50315 11.9541 7.45783 7.00167 10.5466 0.28781C10.6664 0.0274076 11.072 0.110006 11.072 0.39612V11.758C11.072 15.8905 14.4814 18.8423 19.2546 18.8423Z" fill="#4775FF"/>
<path d="M71.4182 18.8423C66.6451 18.8423 51.0471 16.2279 45.3364 24.5773C45.3365 28.3978 45.3364 34.3604 45.3364 34.3604H79.6008C83.0954 34.3604 91.9746 28.6667 89.8289 21.2037C87.1696 11.9541 83.215 7.00167 80.1262 0.28781C80.0064 0.0274076 79.6008 0.110006 79.6008 0.39612V11.758C79.6008 15.8905 76.1914 18.8423 71.4182 18.8423Z" fill="#4775FF"/>
<path d="M45.1651 8.87744H45.1495H45.1339C9.71798 9.06164 16.968 48.8942 16.968 48.8942C16.968 48.8942 20.9438 55.7939 20.9438 55.6558C20.8191 50.0915 23.0798 40.237 24.6857 36.0465C25.0777 35.0231 25.8227 34.168 26.7903 33.6306C27.7579 33.0933 28.8866 32.9079 29.979 33.107C33.4481 33.7287 38.9831 34.4962 45.0793 34.4962H45.204C51.3081 34.4962 56.8352 33.7287 60.3043 33.107C62.5651 32.7002 64.7947 33.9359 65.5976 36.0465C67.2035 40.2446 69.4643 50.0915 69.3395 55.6558C69.3395 55.7939 73.3154 48.8942 73.3154 48.8942C73.3154 48.8942 80.581 9.06164 45.1651 8.87744Z" fill="#222222"/>
</svg>
