<svg width="91" height="104" viewBox="0 0 91 104" fill="none" xmlns="http://www.w3.org/2000/svg">
<path d="M55.1652 81.5566C54.0394 83.9369 50.5367 95.5931 45.4079 95.5931C40.2791 95.5931 36.1155 83.3266 35.3382 81.5566C34.6845 80.0682 33.7267 84.8478 32.0854 84.6083C30.4441 84.3688 27.0844 77.8335 28.9582 69.1057C30.334 62.6971 45.4079 63.7347 45.4079 63.7347C45.4079 63.7347 60.7473 62.514 61.9203 69.1057C63.7341 79.2983 60.0439 84.9745 58.2926 84.6083C56.6037 84.2552 55.889 80.0264 55.1652 81.5566Z" fill="#4775FF"/>
<path d="M72.0692 35.6532C72.0692 54.2473 59.279 80.3794 44.4955 80.3794C29.7121 80.3794 17.5863 51.0645 17.5863 35.6532C17.5863 22.4742 31.4273 24.5973 44.4955 24.5973C57.5638 24.5973 72.0692 22.4742 72.0692 35.6532Z" fill="#4775FF"/>
<path d="M45.4014 103.2C38.1585 103.2 26.0872 99.9555 26.0872 85.8953C26.0872 71.835 26.0872 68.5903 29.7086 68.5903C33.33 68.5903 38.1585 71.835 45.4014 71.835C52.6442 71.835 57.3701 68.5903 61.0941 68.5903C65.1296 68.5903 64.7155 81.569 64.7155 85.8953C64.7155 99.9555 52.6442 103.2 45.4014 103.2Z" fill="#888888"/>
<ellipse cx="45.4075" cy="71.4421" rx="13.9105" ry="8.93771" fill="#FFCC47"/>
<ellipse cx="37.4861" cy="73.3443" rx="1.73882" ry="1.71148" fill="#4775FF"/>
<ellipse cx="53.3287" cy="73.3443" rx="1.73882" ry="1.71148" fill="#4775FF"/>
<path fill-rule="evenodd" clip-rule="evenodd" d="M67.0181 78.224C62.7739 81.9175 59.5493 80.9073 54.2557 76.8056C49.8755 73.4165 46.2784 75.4978 45.4084 78.4179C44.5275 75.4933 40.9277 73.4165 36.5502 76.8124C31.2674 80.9186 28.0428 81.9333 23.7959 78.2465C23.3745 81.9581 27.9123 85.4351 33.9238 86.0056C39.4948 86.5333 44.3807 84.3843 45.4111 81.117C46.4524 84.3888 51.3356 86.531 56.9093 85.9943C62.9153 85.4148 67.445 81.9378 67.0181 78.224V78.224Z" fill="#222222"/>
<path d="M19.3255 18.6344C24.0987 18.6344 39.6967 16.049 45.4074 24.3056C45.4073 28.0837 45.4074 33.9801 45.4074 33.9801H11.143C7.64838 33.9801 -1.23082 28.3496 0.914837 20.9696C3.5742 11.8227 7.52881 6.92533 10.6176 0.286066C10.7374 0.028557 11.143 0.110238 11.143 0.393173V11.6288C11.143 15.7154 14.5524 18.6344 19.3255 18.6344Z" fill="#4775FF"/>
<path d="M71.4892 18.6344C66.7161 18.6344 51.1181 16.049 45.4074 24.3056C45.4075 28.0837 45.4074 33.9801 45.4074 33.9801H79.6718C83.1664 33.9801 92.0456 28.3496 89.9 20.9696C87.2406 11.8227 83.286 6.92533 80.1972 0.286066C80.0774 0.028557 79.6718 0.110238 79.6718 0.393173V11.6288C79.6718 15.7154 76.2624 18.6344 71.4892 18.6344Z" fill="#4775FF"/>
</svg>
