<svg width="90" height="96" viewBox="0 0 90 96" fill="none" xmlns="http://www.w3.org/2000/svg">
<path d="M71.2873 61.3843C70.0305 59.0192 71.4837 56.8447 73.8951 54.4262C76.6129 51.7024 81.1294 42.3562 76.3301 34.0247C75.4268 33.895 62.3407 34.0857 59.0259 34.0857H30.7643C27.4495 34.0857 14.3634 33.895 13.4601 34.0247C8.66864 42.3562 12.4939 50.9394 15.8951 54.4262C17.9766 56.5548 19.2648 58.5537 18.0159 61.1173C17.2383 62.6966 16.4685 63.4519 15.5809 63.6198C15.8165 63.9784 16.1307 64.2759 16.4999 64.4896C17.7645 65.222 19.3669 65.3898 20.4038 65.4204C21.0321 65.4356 21.4877 65.84 21.904 66.2825C26.3106 71.0357 29.3818 72.0123 44.903 72.0123C60.4241 72.0123 63.4953 71.0281 67.9019 66.2825C68.3182 65.84 68.7738 65.4356 69.4022 65.4204C70.439 65.3975 72.0414 65.2296 73.306 64.4896C73.6752 64.2759 73.9894 63.9784 74.225 63.6198C73.3217 63.4443 72.1042 62.9408 71.2873 61.3843V61.3843Z" fill="#222222"/>
<path d="M18.741 18.8423C23.5141 18.8423 39.1121 16.2279 44.8228 24.5773C44.8227 28.3978 44.8228 34.3604 44.8228 34.3604H10.5584C7.06379 34.3604 -1.81542 28.6667 0.330242 21.2037C2.9896 11.9541 6.94424 7.00167 10.033 0.28781C10.1528 0.0274076 10.5584 0.110006 10.5584 0.39612V11.758C10.5584 15.8905 13.9678 18.8423 18.741 18.8423Z" fill="#4775FF"/>
<path d="M70.9047 18.8423C66.1315 18.8423 50.5335 16.2279 44.8228 24.5773C44.823 28.3978 44.8228 34.3604 44.8228 34.3604H79.0872C82.5818 34.3604 91.461 28.6667 89.3154 21.2037C86.656 11.9541 82.7014 7.00167 79.6126 0.28781C79.4928 0.0274076 79.0872 0.110006 79.0872 0.39612V11.758C79.0872 15.8905 75.6778 18.8423 70.9047 18.8423Z" fill="#4775FF"/>
<path d="M54.5805 81.7699C53.4546 84.1785 49.952 95.9734 44.8232 95.9734C39.6944 95.9734 35.5308 83.5609 34.7535 81.7699C34.0998 80.2637 33.142 85.1002 31.5007 84.8579C29.8594 84.6156 26.4997 78.0024 28.3734 69.1707C29.7493 62.6858 44.8232 63.7357 44.8232 63.7357C44.8232 63.7357 60.1625 62.5005 61.3356 69.1707C63.1494 79.4847 59.4591 85.2284 57.7079 84.8579C56.019 84.5005 55.3043 80.2214 54.5805 81.7699Z" fill="#4775FF"/>
<path d="M71.8711 36.0341C71.8711 54.6281 58.9902 80.7603 44.1019 80.7603C29.2136 80.7603 17.0018 51.4454 17.0018 36.0341C17.0018 22.8551 30.941 24.9781 44.1019 24.9781C57.2628 24.9781 71.8711 22.8551 71.8711 36.0341Z" fill="#4775FF"/>
<ellipse cx="44.8228" cy="71.822" rx="13.9105" ry="8.93771" fill="#FFCC47"/>
<ellipse cx="37.0948" cy="73.534" rx="1.54561" ry="1.52131" fill="#4775FF"/>
<ellipse cx="52.7441" cy="73.534" rx="1.73882" ry="1.52131" fill="#4775FF"/>
<path d="M36.1408 13.7222C27.1427 16.8789 27.3553 10.6235 27.3553 10.6235C22.4712 13.0328 24.5686 18.8817 24.5686 18.8817C24.5686 18.8817 19.6185 18.5189 17.4992 22.7568C15.2845 27.1907 17.2352 30.5796 17.2352 30.5796C17.2352 30.5796 12.4757 33.5694 14.3458 39.0119C15.5851 42.6258 18.1613 46.0883 18.1613 46.0883C18.9533 52.5613 21.3272 55.6589 21.3272 55.6589C21.3272 55.6589 24.4146 42.2702 24.1213 40.2238C24.1213 40.2238 29.812 39.1063 36.2728 35.4489C40.6362 32.9743 43.6209 30.0716 48.527 28.9831C55.9925 27.3213 57.6572 32.6695 57.6572 32.6695C57.6572 32.6695 64.5653 31.3561 66.648 40.8479C67.506 44.752 68.5361 48.662 69.0055 52.6315C68.9615 52.2832 70.9087 50.601 71.3634 46.2469C71.5321 44.6287 74.0108 40.681 74.7588 37.742C76.3795 31.3561 74.2528 26.3199 73.2481 24.8177C71.4147 22.0674 67.022 18.2867 63.7366 18.8382C63.9053 15.3549 61.1332 12.1257 57.7965 11.0154C48.6664 7.97482 38.8249 12.7788 36.1408 13.7222Z" fill="#222222"/>
</svg>
