<svg width="91" height="96" viewBox="0 0 91 96" fill="none" xmlns="http://www.w3.org/2000/svg">
<path d="M82.0836 53.8986C82.7705 53.2898 83.3292 52.4954 83.7148 51.5791C84.1004 50.6628 84.3022 49.6504 84.3039 48.6231C84.3014 47.2738 83.9548 45.958 83.3109 44.8539C82.667 43.7499 81.757 42.9109 80.7041 42.4507C81.6079 41.2518 82.1103 39.6916 82.1142 38.072C82.1142 36.3231 81.5375 34.6458 80.5109 33.4091C79.4843 32.1724 78.092 31.4776 76.6402 31.4776L76.6139 31.4803C77.308 30.3751 77.735 29.014 77.735 27.521C77.735 25.7721 77.1583 24.0947 76.1317 22.858C75.1051 21.6214 73.7128 20.9266 72.2609 20.9266C70.9624 20.9324 69.7086 21.4986 68.7269 22.5224C62.6398 13.5752 54.0783 7.73779 44.8907 7.73779C35.4885 7.73779 26.7409 13.0951 20.6319 22.103C19.8108 21.4197 18.8503 21.0198 17.8542 20.9465C16.8581 20.8732 15.8643 21.1293 14.9803 21.6872C14.0963 22.245 13.3557 23.0834 12.8386 24.1116C12.3215 25.1398 12.0475 26.3188 12.0464 27.521C12.0464 29.014 12.4734 30.3751 13.1675 31.4803L13.1412 31.4776C11.6894 31.4776 10.2971 32.1724 9.27047 33.4091C8.24389 34.6458 7.66716 36.3231 7.66716 38.072C7.66716 39.7602 8.21018 41.2848 9.07727 42.4507C8.02438 42.9109 7.11436 43.7499 6.47047 44.8539C5.82659 45.958 5.47996 47.2738 5.47754 48.6231C5.47754 50.7913 6.35777 52.6958 7.69781 53.8986C7.01092 54.5074 6.4522 55.3018 6.06658 56.2181C5.68096 57.1343 5.47921 58.1468 5.47754 59.1741C5.47754 62.0176 6.98181 64.4206 9.07727 65.3465C8.17351 66.5454 7.67106 68.1056 7.66716 69.7252C7.66716 72.9722 9.6203 75.6575 12.1843 76.2035C12.095 76.6743 12.0487 77.1555 12.0464 77.6384C12.0464 79.3874 12.6231 81.0647 13.6497 82.3014C14.6763 83.5381 16.0686 84.2328 17.5204 84.2328C18.8648 84.2281 20.16 83.6229 21.1552 82.5341C21.5372 83.8025 22.2337 84.8988 23.1501 85.6745C24.0666 86.4501 25.1589 86.8677 26.2789 86.8706C27.6233 86.8659 28.9184 86.2606 29.9137 85.1719C30.2957 86.4403 30.9921 87.5365 31.9086 88.3122C32.8251 89.0879 33.9174 89.5054 35.0374 89.5084C36.3191 89.5072 37.5596 88.9634 38.5422 87.9721C39.5249 86.9807 40.187 85.6049 40.4129 84.0851C41.8865 84.1748 43.3755 84.2328 44.8907 84.2328C46.4037 84.2328 47.8905 84.1511 49.3641 84.0271C49.5796 85.5587 50.2379 86.949 51.2225 87.9522C52.2071 88.9553 53.4545 89.5065 54.744 89.5084C55.864 89.5054 56.9563 89.0879 57.8728 88.3122C58.7892 87.5365 59.4857 86.4403 59.8677 85.1719C60.863 86.2606 62.1581 86.8659 63.5025 86.8706C64.6225 86.8677 65.7148 86.4501 66.6312 85.6745C67.5477 84.8988 68.2441 83.8025 68.6262 82.5341C69.6214 83.6229 70.9166 84.2281 72.2609 84.2328C73.7128 84.2328 75.1051 83.5381 76.1317 82.3014C77.1583 81.0647 77.735 79.3874 77.735 77.6384C77.735 77.1452 77.6824 76.6677 77.597 76.2035C78.8618 75.9351 80.0078 75.1387 80.8338 73.9541C81.6598 72.7695 82.1131 71.2723 82.1142 69.7252C82.1103 68.1056 81.6079 66.5454 80.7041 65.3465C81.757 64.8863 82.667 64.0473 83.3109 62.9432C83.9548 61.8392 84.3014 60.5234 84.3039 59.1741C84.3039 57.0059 83.4236 55.1014 82.0836 53.8986Z" fill="#222222"/>
<path d="M55.4213 81.5566C54.2955 83.9369 50.7928 95.5931 45.664 95.5931C40.5353 95.5931 36.3716 83.3266 35.5943 81.5566C34.9406 80.0682 33.9828 84.8478 32.3415 84.6083C30.7002 84.3688 27.3405 77.8335 29.2143 69.1057C30.5901 62.6971 45.664 63.7347 45.664 63.7347C45.664 63.7347 61.0034 62.514 62.1764 69.1057C63.9902 79.2983 60.3 84.9745 58.5487 84.6083C56.8598 84.2552 56.1451 80.0264 55.4213 81.5566Z" fill="#4775FF"/>
<path d="M72.7118 35.6532C72.7118 54.2473 59.9216 80.3794 45.1381 80.3794C30.3547 80.3794 18.2289 51.0645 18.2289 35.6532C18.2289 22.4742 32.0699 24.5973 45.1381 24.5973C58.2063 24.5973 72.7118 22.4742 72.7118 35.6532Z" fill="#4775FF"/>
<ellipse cx="45.8567" cy="71.4421" rx="13.7173" ry="8.93771" fill="#FFCC47"/>
<ellipse cx="37.9354" cy="73.3443" rx="1.54561" ry="1.71148" fill="#4775FF"/>
<ellipse cx="53.5848" cy="73.3443" rx="1.73882" ry="1.71148" fill="#4775FF"/>
<path d="M19.5817 18.6344C24.3548 18.6344 39.9528 16.049 45.6635 24.3056C45.6634 28.0837 45.6635 33.9801 45.6635 33.9801H11.3991C7.90448 33.9801 -0.974721 28.3496 1.17094 20.9696C3.8303 11.8227 7.78493 6.92533 10.8737 0.286066C10.9935 0.028557 11.3991 0.110238 11.3991 0.393173V11.6288C11.3991 15.7154 14.8085 18.6344 19.5817 18.6344Z" fill="#4775FF"/>
<path d="M71.7454 18.6344C66.9722 18.6344 51.3742 16.049 45.6635 24.3056C45.6636 28.0837 45.6635 33.9801 45.6635 33.9801H79.9279C83.4225 33.9801 92.3017 28.3496 90.1561 20.9696C87.4967 11.8227 83.5421 6.92533 80.4533 0.286066C80.3335 0.028557 79.9279 0.110238 79.9279 0.393173V11.6288C79.9279 15.7154 76.5185 18.6344 71.7454 18.6344Z" fill="#4775FF"/>
<path d="M19.5817 18.6344C24.3548 18.6344 39.9528 16.049 45.6635 24.3056C45.6634 28.0837 45.6635 33.9801 45.6635 33.9801H11.3991C7.90448 33.9801 -0.974721 28.3496 1.17094 20.9696C3.8303 11.8227 7.78493 6.92533 10.8737 0.286066C10.9935 0.028557 11.3991 0.110238 11.3991 0.393173V11.6288C11.3991 15.7154 14.8085 18.6344 19.5817 18.6344Z" fill="#4775FF"/>
<path d="M71.7454 18.6344C66.9722 18.6344 51.3742 16.049 45.6635 24.3056C45.6636 28.0837 45.6635 33.9801 45.6635 33.9801H79.9279C83.4225 33.9801 92.3017 28.3496 90.1561 20.9696C87.4967 11.8227 83.5421 6.92533 80.4533 0.286066C80.3335 0.028557 79.9279 0.110238 79.9279 0.393173V11.6288C79.9279 15.7154 76.5185 18.6344 71.7454 18.6344Z" fill="#4775FF"/>
<path d="M72.0548 22.2133C72.8569 21.6206 73.5082 20.8535 73.9574 19.9723C74.4066 19.0911 74.6416 18.1197 74.6438 17.1343C74.6438 15.4342 73.9556 13.8038 72.7305 12.6016C71.5054 11.3995 69.8438 10.7241 68.1112 10.7241C67.2511 10.7241 66.4345 10.8972 65.6811 11.1942C65.3115 9.83603 64.4959 8.63526 63.3606 7.77775C62.2254 6.92025 60.8337 6.45383 59.4011 6.45069C58.2765 6.45765 57.1732 6.75224 56.2001 7.30538C55.6142 6.39058 54.8017 5.6364 53.8382 5.11328C52.8748 4.59015 51.792 4.31516 50.6909 4.31396C49.0099 4.31396 47.4943 4.95498 46.3359 5.97847C45.1455 4.91174 43.5929 4.31833 41.9808 4.31396C40.8797 4.31516 39.7969 4.59015 38.8335 5.11328C37.8701 5.6364 37.0575 6.39058 36.4716 7.30538C35.4985 6.75224 34.3952 6.45765 33.2707 6.45069C31.838 6.45383 30.4464 6.92025 29.3111 7.77775C28.1759 8.63526 27.3603 9.83603 26.9907 11.1942C26.2188 10.8861 25.3938 10.7265 24.5605 10.7241C23.1599 10.725 21.7966 11.1675 20.6717 11.9865C19.5469 12.8056 18.7201 13.9576 18.3134 15.2728C17.9066 16.588 17.9414 17.9966 18.4127 19.2909C18.8839 20.5852 19.7666 21.6966 20.9306 22.4612C18.1869 26.3799 16.4644 30.2837 15.5782 32.8927C13.1285 40.1041 21.7341 57.2898 20.8848 48.7835C19.8658 38.5529 23.5763 29.7346 31.128 27.0616C31.3261 31.0444 35.1172 34.2281 39.8033 34.2281C42.5078 34.2281 44.8965 33.1469 46.4927 31.4846C46.8557 33.4517 47.9106 35.2315 49.4736 36.5138C51.0367 37.7961 53.0087 38.4996 55.046 38.5016C57.8224 38.5016 60.2656 37.2025 61.8617 35.2174C62.6456 38.3413 65.1324 40.6383 68.1112 40.6383C71.7194 40.6383 74.6438 37.2901 74.6438 33.1598C74.6362 32.5014 74.5514 31.8461 74.3912 31.2068C74.5415 30.8286 74.6438 30.4205 74.6438 29.9547C74.6438 27.9633 73.8011 25.1492 72.0548 22.2133V22.2133Z" fill="#222222"/>
</svg>
