<svg width="91" height="97" viewBox="0 0 91 97" fill="none" xmlns="http://www.w3.org/2000/svg">
<path d="M46.1827 6.08545C59.1474 6.08545 80.7551 13.6445 80.7551 46.4002C80.7551 79.156 80.7551 86.715 74.2728 86.715C67.7905 86.715 59.1474 79.156 46.1827 79.156C33.2181 79.156 24.7587 86.715 18.0927 86.715C10.8692 86.715 11.6104 56.4789 11.6104 46.4002C11.6104 13.6445 33.2181 6.08545 46.1827 6.08545Z" fill="#222222"/>
<path d="M56.0407 82.0199C54.9021 84.4285 51.3596 96.2234 46.1726 96.2234C40.9855 96.2234 36.7745 83.8109 35.9884 82.0199C35.3273 80.5137 34.3586 85.3502 32.6986 85.1079C31.0387 84.8656 27.6408 78.2524 29.5358 69.4207C30.9273 62.9358 46.1726 63.9857 46.1726 63.9857C46.1726 63.9857 61.6862 62.7505 62.8725 69.4207C64.707 79.7347 60.9748 85.4784 59.2036 85.1079C57.4956 84.7505 56.7728 80.4714 56.0407 82.0199Z" fill="#4775FF"/>
<path d="M73.0272 36.2841C73.0272 54.8781 60.237 81.0103 45.4535 81.0103C30.6701 81.0103 18.5443 51.6954 18.5443 36.2841C18.5443 23.1051 32.3853 25.2281 45.4535 25.2281C58.5218 25.2281 73.0272 23.1051 73.0272 36.2841Z" fill="#4775FF"/>
<ellipse cx="46.172" cy="72.072" rx="13.7173" ry="8.93771" fill="#FFCC47"/>
<ellipse cx="38.444" cy="73.784" rx="1.73882" ry="1.52131" fill="#4775FF"/>
<ellipse cx="53.9002" cy="73.784" rx="1.73882" ry="1.52131" fill="#4775FF"/>
<path d="M19.5914 21.5465C24.3851 21.5465 40.0503 18.9611 45.7857 27.2177C45.7855 30.9958 45.7857 36.8922 45.7857 36.8922H11.3736C7.86389 36.8922 -1.05359 31.2617 1.10132 23.8817C3.77214 14.7348 7.74382 9.83744 10.8459 3.19818C10.9662 2.94067 11.3736 3.02235 11.3736 3.30528V14.5409C11.3736 18.6275 14.7977 21.5465 19.5914 21.5465Z" fill="#4775FF"/>
<path d="M71.9799 21.5465C67.1862 21.5465 51.521 18.9611 45.7857 27.2177C45.7858 30.9958 45.7857 36.8922 45.7857 36.8922H80.1977C83.7074 36.8922 92.6249 31.2617 90.47 23.8817C87.7992 14.7348 83.8275 9.83744 80.7254 3.19818C80.6051 2.94067 80.1977 3.02235 80.1977 3.30528V14.5409C80.1977 18.6275 76.7737 21.5465 71.9799 21.5465Z" fill="#4775FF"/>
<path d="M13.9085 49.4427C13.8437 48.744 13.7703 48.0518 13.7703 47.293C13.7703 36.5446 20.2527 48.5011 20.2527 40.8439C20.2527 33.1846 24.5743 32.2452 28.8959 27.9459L35.3783 21.4968C35.3783 21.4968 46.1823 27.9459 54.8255 27.9459C63.4687 27.9459 72.1119 32.2452 72.1119 40.8439C72.1119 49.4427 78.5943 36.5446 78.5943 47.293C78.5943 48.0561 78.523 48.7397 78.469 49.4427H80.7357C80.7551 46.2676 80.7551 42.7099 80.7551 38.6943C80.7551 10.7484 59.1471 0 46.1823 0C33.2175 0 11.6095 10.7484 11.6095 38.6943C11.6095 41.1836 11.549 45.1132 11.6354 49.4427H13.9085Z" fill="#222222"/>
</svg>
