<svg width="31" height="12" viewBox="0 0 31 12" fill="none" xmlns="http://www.w3.org/2000/svg">
<path d="M29.2329 4.16667H27.9204C27.1704 1.96667 25.1079 0.5 22.6704 0.5C20.2329 0.5 18.1704 2.15 17.4204 4.35C16.8579 3.61667 16.1079 3.25 15.1704 3.25C14.2329 3.25 13.4829 3.61667 12.9204 4.35C12.1704 2.15 10.1079 0.5 7.67041 0.5C5.23291 0.5 3.17041 2.15 2.42041 4.16667H1.10791C0.54541 4.16667 0.17041 4.53333 0.17041 5.08333C0.17041 5.63333 0.54541 6 1.10791 6H2.04541C2.04541 9.11667 4.48291 11.5 7.67041 11.5C10.4829 11.5 12.7329 9.48333 13.2954 6.91667C13.8579 6.91667 14.2329 6.55 14.2329 6C14.2329 5.45 14.6079 5.08333 15.1704 5.08333C15.7329 5.08333 16.1079 5.45 16.1079 6C16.1079 6.55 16.4829 6.91667 17.0454 6.91667C17.4204 9.48333 19.8579 11.5 22.6704 11.5C25.8579 11.5 28.2954 9.11667 28.2954 6H29.2329C29.7954 6 30.1704 5.63333 30.1704 5.08333C30.1704 4.53333 29.7954 4.16667 29.2329 4.16667ZM7.67041 9.66667C5.60791 9.66667 3.92041 8.01667 3.92041 6C3.92041 3.98333 5.60791 2.33333 7.67041 2.33333C9.73291 2.33333 11.4204 3.98333 11.4204 6C11.4204 8.01667 9.73291 9.66667 7.67041 9.66667ZM22.6704 9.66667C20.6079 9.66667 18.9204 8.01667 18.9204 6C18.9204 3.98333 20.6079 2.33333 22.6704 2.33333C24.7329 2.33333 26.4204 3.98333 26.4204 6C26.4204 8.01667 24.7329 9.66667 22.6704 9.66667Z" fill="#222222"/>
</svg>
