<svg width="29" height="29" viewBox="0 0 743 927" fill="none" xmlns="http://www.w3.org/2000/svg">
<path fill-rule="evenodd" clip-rule="evenodd" d="M179.869 276.759C169.891 277.399 161.462 277.939 155.247 277.939C115.707 277.939 87.4644 253.227 87.4644 218.629V132.336C87.4644 127.98 81.2554 126.674 79.3775 130.604C71.8777 146.301 63.862 160.992 55.7486 175.862L55.7485 175.862C36.8441 210.509 17.4096 246.128 2.73567 297.709C-15.0387 360.189 58.5154 407.857 87.4644 407.857H143.047C142.705 411.809 142.531 415.95 142.531 420.286C142.531 498.396 178.831 618.843 234.403 702.563C219.409 776.012 247.079 830.868 260.635 832.889C267.789 833.956 273.38 823.291 277.862 814.74C281.922 806.997 285.072 800.987 287.652 806.99C288.379 808.681 289.463 811.502 290.874 815.175L290.875 815.178C301.999 844.139 333.489 926.114 371.29 926.114C406.828 926.114 432.966 857.268 446.084 822.716L446.085 822.714C448.691 815.849 450.783 810.338 452.333 806.99C455.354 800.466 458.355 806.277 462.372 814.056C466.352 821.761 471.328 831.398 478.309 832.889C492.855 835.997 523.506 787.825 508.44 701.322C508.232 700.126 507.97 698.96 507.656 697.824C559.974 619.697 594.417 509.668 594.417 420.286C594.417 415.95 594.234 411.809 593.876 407.857H655.147C684.096 407.857 757.65 360.189 739.876 297.709C725.202 246.128 705.767 210.509 686.863 175.862L686.861 175.859C678.748 160.99 670.733 146.3 663.234 130.604C661.356 126.674 655.147 127.98 655.147 132.336V218.629C655.147 253.227 626.904 277.939 587.364 277.939C581.15 277.939 572.72 277.399 562.742 276.759C509.232 273.327 411.178 267.037 371.306 325.952C331.434 267.037 233.38 273.327 179.869 276.759ZM371.306 325.952C371.306 326.3 371.306 326.649 371.306 327.001C371.306 326.649 371.306 326.3 371.306 325.952Z" fill="#4775FF"/>
<ellipse cx="371.302" cy="722.766" rx="114.384" ry="74.8437" fill="#FFCC47"/>
<circle cx="306.336" cy="736.886" r="14.1215" fill="#4775FF"/>
<circle cx="436.26" cy="736.886" r="14.1215" fill="#4775FF"/>
<path d="M370.92 157.13C334.501 157.255 299.595 171.707 273.751 197.36C270.094 201.037 268.042 206.011 268.042 211.196C268.042 216.38 270.094 221.354 273.751 225.031C277.428 228.686 282.404 230.738 287.59 230.738C292.776 230.738 297.751 228.686 301.429 225.031C310.546 215.893 321.377 208.643 333.302 203.697C345.226 198.75 358.009 196.204 370.92 196.204C383.83 196.204 396.613 198.75 408.537 203.697C420.462 208.643 431.293 215.893 440.41 225.031C444.034 228.728 448.973 230.845 454.151 230.918C458.134 231.147 462.092 230.158 465.498 228.082C468.905 226.005 471.597 222.941 473.217 219.296C474.838 215.652 475.309 211.6 474.568 207.681C473.827 203.762 471.909 200.162 469.07 197.36C456.154 184.54 440.838 174.388 423.997 167.485C407.157 160.583 389.121 157.064 370.92 157.13ZM370.92 78.6317C313.678 78.7837 258.804 101.489 218.197 141.823C216.367 143.653 214.915 145.825 213.925 148.215C212.934 150.606 212.424 153.169 212.424 155.756C212.424 160.982 214.501 165.994 218.197 169.69C221.894 173.385 226.907 175.461 232.135 175.461C237.362 175.461 242.376 173.385 246.072 169.69C279.198 136.614 324.102 118.036 370.92 118.036C417.737 118.036 462.641 136.614 495.767 169.69C497.601 171.508 499.776 172.947 502.168 173.924C504.56 174.901 507.121 175.396 509.704 175.381C512.288 175.396 514.849 174.901 517.24 173.924C519.632 172.947 521.807 171.508 523.642 169.69C525.482 167.865 526.942 165.695 527.939 163.303C528.935 160.912 529.448 158.347 529.448 155.756C529.448 153.166 528.935 150.6 527.939 148.209C526.942 145.818 525.482 143.647 523.642 141.823C483.035 101.489 428.161 78.7837 370.92 78.6317ZM579.195 86.2852C551.85 58.9306 519.382 37.2307 483.645 22.4255C447.908 7.62031 409.603 0 370.92 0C332.236 0 293.931 7.62031 258.194 22.4255C222.457 37.2307 189.989 58.9306 162.644 86.2852C158.948 89.9806 156.871 94.9926 156.871 100.219C156.871 105.445 158.948 110.457 162.644 114.152C166.341 117.847 171.354 119.924 176.582 119.924C181.809 119.924 186.822 117.847 190.519 114.152C238.373 66.3366 303.262 39.4762 370.92 39.4762C438.577 39.4762 503.466 66.3366 551.32 114.152C553.145 115.991 555.316 117.451 557.708 118.448C560.1 119.444 562.666 119.957 565.257 119.957C567.849 119.957 570.415 119.444 572.807 118.448C575.199 117.451 577.37 115.991 579.195 114.152C581.035 112.328 582.495 110.157 583.492 107.766C584.488 105.374 585.001 102.809 585.001 100.219C585.001 97.628 584.488 95.063 583.492 92.6715C582.495 90.2801 581.035 88.1096 579.195 86.2852Z" fill="#4775FF"/>
</svg>
