<svg width="40" height="40" viewBox="0 0 40 40" fill="none" xmlns="http://www.w3.org/2000/svg">
<path d="M0 10C0 4.47715 4.47715 0 10 0H30C35.5228 0 40 4.47715 40 10V30C40 35.5228 35.5228 40 30 40H10C4.47715 40 0 35.5228 0 30V10Z" fill="#4775FF"/>
<path d="M10 11.1111C10 10.8164 10.1171 10.5338 10.3254 10.3254C10.5338 10.1171 10.8164 10 11.1111 10H28.8889C29.1836 10 29.4662 10.1171 29.6746 10.3254C29.8829 10.5338 30 10.8164 30 11.1111V13.9844C29.9999 14.2791 29.8828 14.5617 29.6744 14.77L22.5478 21.8967C22.3394 22.105 22.2223 22.3876 22.2222 22.6822V25.5556L17.7778 30V22.6822C17.7777 22.3876 17.6606 22.105 17.4522 21.8967L10.3256 14.77C10.1172 14.5617 10.0001 14.2791 10 13.9844V11.1111Z" stroke="white" stroke-width="2" stroke-linecap="round" stroke-linejoin="round"/>
</svg>
