<svg width="112" height="128" viewBox="0 0 112 128" fill="none" xmlns="http://www.w3.org/2000/svg">
<path d="M0 21H90.6667V127.667H0V21Z" fill="#C4D3FF"/>
<path d="M16 79.6665H26.6667V90.3332H16V79.6665Z" fill="#4775FF"/>
<path d="M16 58.3335H26.6667V69.0002H16V58.3335Z" fill="#4775FF"/>
<path d="M16 101H26.6667V111.667H16V101Z" fill="#4775FF"/>
<path d="M16 37H26.6667V47.6667H16V37Z" fill="#4775FF"/>
<path d="M37.3333 79.6665H74.6667V90.3332H37.3333V79.6665Z" fill="#4775FF"/>
<path d="M37.3333 58.3335H74.6667V69.0002H37.3333V58.3335Z" fill="#4775FF"/>
<path d="M37.3333 101H74.6667V111.667H37.3333V101Z" fill="#4775FF"/>
<path d="M37.3333 37H74.6667V47.6667H37.3333V37Z" fill="#4775FF"/>
<path d="M91 0L95.7 3.6L101.5 2.8L103.7 8.3L109.2 10.5L108.4 16.3L112 21L108.4 25.7L109.2 31.5L103.7 33.7L101.5 39.2L95.7 38.4L91 42L86.3 38.4L80.5 39.2L78.3 33.7L72.8 31.5L73.6 25.7L70 21L73.6 16.3L72.8 10.5L78.3 8.3L80.5 2.8L86.3 3.6L91 0Z" fill="#A4FF2E"/>
<path d="M101.6 11.6001L88 25.2001L82.4 19.6001L79.6 22.4001L88 30.8001L104.4 14.4001L101.6 11.6001Z" fill="white"/>
</svg>
