<svg width="86" height="154" viewBox="0 0 86 154" fill="none" xmlns="http://www.w3.org/2000/svg">
<path d="M17.822 47.1985C22.3611 47.1985 37.1943 44.7347 42.625 52.6029C42.6249 56.2033 42.625 61.8222 42.625 61.8222H10.0407C6.71743 61.8222 -1.7264 56.4566 0.314049 49.4238C2.84301 40.7072 6.60374 36.0403 9.54107 29.7133C9.65499 29.4679 10.0407 29.5458 10.0407 29.8154V40.5224C10.0407 44.4168 13.2829 47.1985 17.822 47.1985Z" fill="#4775FF"/>
<path d="M67.428 47.1985C62.8889 47.1985 48.0557 44.7347 42.625 52.6029C42.6251 56.2033 42.625 61.8222 42.625 61.8222H75.2093C78.5326 61.8222 86.9764 56.4566 84.936 49.4238C82.407 40.7072 78.6463 36.0403 75.7089 29.7133C75.595 29.4679 75.2093 29.5458 75.2093 29.8154V40.5224C75.2093 44.4168 71.9671 47.1985 67.428 47.1985Z" fill="#4775FF"/>
<path d="M67.9695 63.4354C67.9695 81.4431 55.7994 106.751 41.7328 106.751C27.6661 106.751 16.1283 78.3607 16.1283 63.4354C16.1283 50.672 29.2982 52.728 41.7328 52.728C54.1674 52.728 67.9695 50.672 67.9695 63.4354Z" fill="#4775FF"/>
<path d="M45.5668 153.597C36.7589 153.597 22.4148 130.302 22.4148 114.883C22.4148 99.4644 22.4148 95.9062 26.3063 95.9062C30.1978 95.9062 35.3865 99.4644 43.1696 99.4644C50.9527 99.4644 56.0311 95.9062 60.0329 95.9062C64.3694 95.9062 63.9245 110.139 63.9245 114.883C63.9245 130.302 42.918 134.873 45.5668 153.597Z" fill="#222222"/>
<path d="M67.4282 46.2996H17.8215C16.9079 46.2996 16.168 47.0395 16.168 47.9531V51.2602C16.168 52.1738 16.9079 52.9138 17.8215 52.9138H67.4282C68.3418 52.9138 69.0818 52.1738 69.0818 51.2602V47.9531C69.0818 47.0395 68.3418 46.2996 67.4282 46.2996ZM36.0106 39.6853L29.3964 36.3782L36.0106 33.0711L39.3178 26.4569L42.6249 33.0711L49.2391 36.3782L42.6249 39.6853L40.9713 42.9925H62.4675L53.5373 22.1545C52.8988 20.6657 52.8292 18.9942 53.342 17.4574L59.1604 0L39.7745 11.0778C37.329 12.4752 35.3934 14.6168 34.2496 17.1908L22.7822 42.9925H37.6642L36.0106 39.6853ZM42.6249 16.5356L44.2784 13.2284L45.932 16.5356L49.2391 18.1891L45.932 19.8427L44.2784 23.1498L42.6249 19.8427L39.3178 18.1891L42.6249 16.5356Z" fill="#222222"/>
<ellipse cx="42.6251" cy="98.2947" rx="13.2284" ry="8.63524" fill="#FFCC47"/>
<circle cx="35.0923" cy="99.7646" r="1.65356" fill="#4775FF"/>
<circle cx="50.1578" cy="99.7646" r="1.65356" fill="#4775FF"/>
</svg>
